SplineFontDB: 3.2
FontName: Apple-Marker
FullName: Apple Marker
FamilyName: Marker
Weight: Regular
Copyright: copyright missing
Version: 1.0
ItalicAngle: 0
UnderlinePosition: -100
UnderlineWidth: 50
Ascent: 800
Descent: 200
InvalidEm: 0
sfntRevision: 0x00000000
LayerCount: 2
Layer: 0 1 "Back" 1
Layer: 1 1 "Fore" 0
XUID: [1021 646 1504001312 12542976]
StyleMap: 0x0000
FSType: 0
OS2Version: 1
OS2_WeightWidthSlopeOnly: 0
OS2_UseTypoMetrics: 0
CreationTime: 0
ModificationTime: 1724922383
PfmFamily: 17
TTFWeight: 400
TTFWidth: 5
LineGap: 0
VLineGap: 0
Panose: 2 0 5 3 0 0 0 0 0 0
OS2TypoAscent: 800
OS2TypoAOffset: 0
OS2TypoDescent: -222
OS2TypoDOffset: 0
OS2TypoLinegap: 0
OS2WinAscent: 800
OS2WinAOffset: 0
OS2WinDescent: 222
OS2WinDOffset: 0
HheadAscent: 800
HheadAOffset: 0
HheadDescent: -222
HheadDOffset: 0
OS2SubXSize: 650
OS2SubYSize: 700
OS2SubXOff: 0
OS2SubYOff: 140
OS2SupXSize: 650
OS2SupYSize: 700
OS2SupXOff: 0
OS2SupYOff: 480
OS2StrikeYSize: 49
OS2StrikeYPos: 258
OS2Vendor: 'PfEd'
OS2CodePages: 00000001.00000000
OS2UnicodeRanges: 00000001.00000000.00000000.00000000
MarkAttachClasses: 1
DEI: 91125
ShortTable: maxp 16
  1
  0
  73
  119
  10
  0
  0
  2
  0
  1
  1
  0
  64
  0
  0
  0
EndShort
LangName: 1033 "" "" "" "" "" "Version 1.0"
GaspTable: 1 65535 2 0
Encoding: UnicodeBmp
UnicodeInterp: none
NameList: AGL For New Fonts
DisplaySize: -48
AntiAlias: 1
FitToEm: 0
WinInfo: 0 29 12
BeginPrivate: 0
EndPrivate
BeginChars: 65539 78

StartChar: .notdef
Encoding: 65536 -1 0
Width: 500
GlyphClass: 1
Flags: W
LayerCount: 2
Fore
SplineSet
410 800 m 1,0,-1
 410 -200 l 1,1,-1
 93 -200 l 1,2,-1
 93 800 l 1,3,-1
 410 800 l 1,0,-1
167 -131 m 1,4,-1
 333 -131 l 1,5,-1
 333 -98 l 1,6,-1
 231 -98 l 1,7,-1
 301 -51 l 1,8,-1
 333 -51 l 1,9,-1
 333 -18 l 1,10,-1
 167 -18 l 1,11,-1
 167 -51 l 1,12,-1
 237 -51 l 1,13,-1
 167 -98 l 1,14,-1
 167 -131 l 1,4,-1
167 5 m 1,15,-1
 333 5 l 1,16,-1
 333 118 l 1,17,-1
 167 118 l 1,18,-1
 167 5 l 1,15,-1
167 178 m 1,19,-1
 333 178 l 1,20,-1
 333 291 l 1,21,-1
 233 291 l 1,22,-1
 233 235 l 1,23,-1
 267 235 l 1,24,-1
 267 258 l 1,25,-1
 300 258 l 1,26,-1
 300 211 l 1,27,-1
 200 211 l 1,28,-1
 200 291 l 1,29,-1
 167 291 l 1,30,-1
 167 178 l 1,19,-1
167 313 m 1,31,-1
 333 313 l 1,32,-1
 333 413 l 1,33,-1
 300 413 l 1,34,-1
 300 347 l 1,35,-1
 167 347 l 1,36,-1
 167 313 l 1,31,-1
167 370 m 1,37,-1
 267 370 l 1,38,-1
 267 440 l 1,39,-1
 333 440 l 1,40,-1
 333 473 l 1,41,-1
 167 473 l 1,42,-1
 167 440 l 1,43,-1
 233 440 l 1,44,-1
 233 403 l 1,45,-1
 167 403 l 1,46,-1
 167 370 l 1,37,-1
167 500 m 1,47,-1
 333 500 l 1,48,-1
 333 534 l 1,49,-1
 267 534 l 1,50,-1
 267 604 l 1,51,-1
 167 604 l 1,52,-1
 167 500 l 1,47,-1
167 630 m 1,53,-1
 333 630 l 1,54,-1
 333 663 l 1,55,-1
 267 663 l 1,56,-1
 267 700 l 1,57,-1
 333 700 l 1,58,-1
 333 733 l 1,59,-1
 168 733 l 1,60,-1
 168 700 l 1,61,-1
 233 700 l 1,62,-1
 233 663 l 1,63,-1
 167 663 l 1,64,-1
 167 630 l 1,53,-1
200 38 m 1,65,-1
 200 85 l 1,66,-1
 300 85 l 1,67,-1
 300 38 l 1,68,-1
 200 38 l 1,65,-1
200 534 m 1,69,-1
 200 570 l 1,70,-1
 233 570 l 1,71,-1
 233 534 l 1,72,-1
 200 534 l 1,69,-1
EndSplineSet
Validated: 1
EndChar

StartChar: dollar
Encoding: 36 36 4
Width: 574
GlyphClass: 2
Flags: W
LayerCount: 2
Fore
SplineSet
205 714 m 0,0,1
 192 707 192 707 176 686 c 0,2,3
 166 673 166 673 165 662 c 0,4,5
 163 644 163 644 163 606 c 0,6,7
 163 551 163 551 155 530 c 128,-1,8
 147 509 147 509 120 489 c 0,9,10
 95 471 95 471 83 449 c 0,11,12
 74 428 74 428 74 391 c 0,13,14
 74 366 74 366 76 354 c 0,15,16
 79 345 79 345 91 330 c 0,17,18
 118 297 118 297 198 270 c 0,19,20
 239 257 239 257 280 239 c 0,21,22
 314 224 314 224 314 218 c 128,-1,23
 314 212 314 212 297 210 c 0,24,25
 210 196 210 196 143 196 c 0,26,27
 94 196 94 196 79 187 c 0,28,29
 62 177 62 177 56 164 c 0,30,31
 50 152 50 152 50 124 c 2,32,-1
 50 113 l 2,33,34
 50 86 50 86 88 62 c 256,35,36
 126 38 126 38 172 38 c 0,37,38
 200 38 200 38 207 29 c 0,39,40
 214 18 214 18 219 -22 c 0,41,42
 222 -61 222 -61 231 -79 c 0,43,44
 238 -97 238 -97 261 -114 c 0,45,46
 277 -125 277 -125 296 -125 c 0,47,48
 329 -125 329 -125 354 -97 c 0,49,50
 377 -72 377 -72 377 -22 c 0,51,52
 377 -9 377 -9 375 5 c 0,53,54
 375 8 375 8 374.5 16 c 128,-1,55
 374 24 374 24 374 29 c 0,56,57
 374 54 374 54 379 59 c 0,58,59
 390 65 390 65 429 78 c 0,60,61
 459 89 459 89 469 94 c 0,62,63
 482 102 482 102 493 116 c 0,64,65
 510 137 510 137 518 157 c 0,66,67
 524 169 524 169 524 202 c 0,68,69
 524 227 524 227 519 242 c 0,70,71
 491 322 491 322 307 402 c 0,72,73
 300 404 300 404 297 407 c 0,74,75
 293 411 293 411 296 412 c 0,76,77
 301 417 301 417 333 429 c 0,78,79
 374 443 374 443 385 445 c 0,80,81
 461 461 461 461 466 519 c 0,82,83
 466 523 466 523 467 526 c 2,84,-1
 467 532 l 2,85,86
 467 546 467 546 454 563 c 0,87,88
 429 597 429 597 368 597 c 0,89,90
 338 597 338 597 327 604 c 0,91,92
 318 613 318 613 314 641 c 0,93,94
 306 693 306 693 260 714 c 0,95,96
 237 724 237 724 229 724 c 128,-1,97
 221 724 221 724 205 714 c 0,0,1
EndSplineSet
Validated: 9
EndChar

StartChar: percent
Encoding: 37 37 5
Width: 1000
GlyphClass: 2
Flags: W
LayerCount: 2
Fore
SplineSet
774 173 m 0,0,1
 787 173 787 173 787 159 c 0,2,3
 787 146 787 146 774 127 c 128,-1,4
 761 108 761 108 746 99 c 0,5,6
 732 92 732 92 719 103 c 0,7,8
 709 113 709 113 715 128 c 0,9,10
 720 141 720 141 742 157 c 128,-1,11
 764 173 764 173 774 173 c 0,0,1
50 500 m 0,12,13
 50 451 50 451 67 416 c 0,14,15
 96 354 96 354 143 329 c 0,16,17
 162 318 162 318 175 315 c 0,18,19
 191 313 191 313 223 313 c 0,20,21
 256 313 256 313 274 315 c 0,22,23
 285 318 285 318 308 330 c 0,24,25
 366 358 366 358 401 420 c 0,26,27
 437 483 437 483 437 545 c 0,28,29
 437 592 437 592 414 627 c 0,30,31
 394 655 394 655 338 683 c 128,-1,32
 282 711 282 711 231 717 c 0,33,34
 230 717 230 717 227 717.5 c 128,-1,35
 224 718 224 718 222 718 c 0,36,37
 219 718 219 718 215.5 718.5 c 128,-1,38
 212 719 212 719 211 719 c 0,39,40
 200 719 200 719 182 716 c 0,41,42
 156 712 156 712 137 699 c 0,43,44
 118 685 118 685 98 656 c 0,45,46
 50 584 50 584 50 500 c 0,12,13
204 504 m 0,47,48
 204 531 204 531 215 542 c 0,49,50
 224 552 224 552 242 552 c 0,51,52
 258 552 258 552 268 544 c 0,53,54
 278 537 278 537 278 527 c 128,-1,55
 278 517 278 517 261 489 c 0,56,57
 247 469 247 469 228 469 c 0,58,59
 220 469 220 469 213 475 c 0,60,61
 204 482 204 482 204 504 c 0,47,48
284 33 m 0,62,63
 284 0 284 0 304 -18 c 0,64,65
 324 -37 324 -37 360 -37 c 0,66,67
 384 -37 384 -37 403 -16 c 0,68,69
 424 6 424 6 441 45 c 0,70,71
 502 186 502 186 582 336 c 0,72,73
 728 610 728 610 728 644 c 0,74,75
 728 673 728 673 703 694 c 0,76,77
 680 716 680 716 649 716 c 0,78,79
 636 716 636 716 623 709 c 0,80,81
 606 700 606 700 590 673 c 0,82,83
 573 648 573 648 529 567 c 0,84,85
 442 406 442 406 358 225 c 0,86,87
 284 62 284 62 284 33 c 0,62,63
552 112 m 2,88,89
 552 46 552 46 605 -7 c 0,90,91
 660 -62 660 -62 727 -62 c 2,92,-1
 745 -62 l 2,93,94
 788 -60 788 -60 813 -48 c 0,95,96
 841 -34 841 -34 873 -2 c 0,97,98
 950 78 950 78 950 167 c 0,99,100
 950 185 950 185 944 206 c 0,101,102
 927 254 927 254 876 294 c 0,103,104
 822 334 822 334 776 334 c 2,105,-1
 774 334 l 2,106,107
 772 333 772 333 770 333 c 0,108,109
 769 333 769 333 767 332 c 2,110,-1
 765 332 l 2,111,112
 753 331 753 331 727 313 c 0,113,114
 702 295 702 295 682 289 c 0,115,116
 624 271 624 271 589 224 c 128,-1,117
 554 177 554 177 552 118 c 2,118,-1
 552 112 l 2,88,89
EndSplineSet
Validated: 9
EndChar

StartChar: quotesingle
Encoding: 39 39 6
Width: 302
GlyphClass: 2
Flags: W
LayerCount: 2
Fore
SplineSet
199 754 m 0,0,1
 176 741 176 741 159 718 c 0,2,3
 143 698 143 698 103 628 c 0,4,5
 66 565 66 565 58 545 c 0,6,7
 50 527 50 527 50 504 c 2,8,-1
 50 494 l 2,9,10
 50 456 50 456 67 436 c 0,11,12
 85 415 85 415 116 415 c 0,13,14
 145 415 145 415 165 434 c 0,15,16
 188 457 188 457 215 507 c 2,17,-1
 218 512 l 2,18,19
 221 518 221 518 228.5 531 c 128,-1,20
 236 544 236 544 244 558 c 0,21,22
 276 614 276 614 287 638 c 0,23,24
 302 670 302 670 302 686 c 0,25,26
 302 719 302 719 274 750 c 0,27,28
 264 762 264 762 237 762 c 0,29,30
 217 762 217 762 199 754 c 0,0,1
EndSplineSet
Validated: 9
EndChar

StartChar: parenleft
Encoding: 40 40 7
Width: 423
GlyphClass: 2
Flags: W
LayerCount: 2
Fore
SplineSet
247 691 m 0,0,1
 224 678 224 678 187 635 c 0,2,3
 149 591 149 591 129 556 c 0,4,5
 50 408 50 408 50 239 c 0,6,7
 50 174 50 174 59 133 c 0,8,9
 66 98 66 98 90 46 c 0,10,11
 113 2 113 2 137 -25 c 0,12,13
 162 -52 162 -52 212 -85 c 0,14,15
 261 -119 261 -119 290 -119 c 0,16,17
 310 -119 310 -119 341 -102 c 0,18,19
 368 -87 368 -87 368 -59 c 0,20,21
 368 -55 368 -55 367.5 -48 c 128,-1,22
 367 -41 367 -41 367 -38 c 0,23,24
 364 -16 364 -16 350 4 c 0,25,26
 336 23 336 23 300 49 c 0,27,28
 253 83 253 83 234 115 c 128,-1,29
 215 147 215 147 206 206 c 0,30,31
 204 220 204 220 204 241 c 0,32,33
 204 320 204 320 241 419 c 0,34,35
 256 460 256 460 268 476 c 0,36,37
 281 494 281 494 298 501 c 0,38,39
 321 512 321 512 339 535 c 0,40,41
 355 559 355 559 368 598 c 0,42,43
 373 615 373 615 373 628 c 0,44,45
 373 673 373 673 333 693 c 0,46,47
 319 700 319 700 294 700 c 0,48,49
 266 700 266 700 247 691 c 0,0,1
EndSplineSet
Validated: 9
EndChar

StartChar: parenright
Encoding: 41 41 8
Width: 431
GlyphClass: 2
Flags: W
LayerCount: 2
Fore
SplineSet
86 697 m 0,0,1
 70 691 70 691 66 685 c 0,2,3
 62 680 62 680 56 658 c 0,4,5
 50 637 50 637 50 626 c 0,6,7
 50 611 50 611 61 595 c 0,8,9
 71 581 71 581 103 552 c 0,10,11
 147 513 147 513 169 476 c 0,12,13
 192 441 192 441 204 387 c 0,14,15
 221 320 221 320 221 258 c 0,16,17
 221 228 221 228 218 201 c 0,18,19
 210 153 210 153 200 126 c 0,20,21
 189 99 189 99 163 65 c 0,22,23
 153 51 153 51 142.5 35 c 128,-1,24
 132 19 132 19 125.5 10 c 128,-1,25
 119 1 119 1 116 -4 c 0,26,27
 101 -28 101 -28 101 -51 c 0,28,29
 101 -83 101 -83 133 -112 c 0,30,31
 150 -124 150 -124 161 -124 c 0,32,33
 167 -124 167 -124 177 -122 c 0,34,35
 200 -121 200 -121 218 -111 c 0,36,37
 234 -101 234 -101 255 -79 c 0,38,39
 299 -31 299 -31 329 30 c 0,40,41
 360 90 360 90 370 148 c 0,42,43
 381 234 381 234 381 275 c 0,44,45
 381 292 381 292 377 336 c 0,46,47
 363 443 363 443 334 516 c 0,48,49
 316 561 316 561 269 618 c 0,50,51
 224 672 224 672 184 692 c 0,52,53
 154 707 154 707 128 707 c 0,54,55
 113 707 113 707 86 697 c 0,0,1
EndSplineSet
Validated: 9
EndChar

StartChar: asterisk
Encoding: 42 42 9
Width: 519
GlyphClass: 2
Flags: W
LayerCount: 2
Fore
SplineSet
235 735 m 0,0,1
 206 721 206 721 195 688 c 2,2,-1
 188 668 l 1,3,-1
 147 668 l 2,4,5
 100 668 100 668 78 651 c 0,6,7
 57 637 57 637 51 594 c 0,8,9
 51 593 51 593 50.5 588.5 c 128,-1,10
 50 584 50 584 50 581 c 0,11,12
 50 562 50 562 65 545 c 0,13,14
 75 534 75 534 126 495 c 0,15,16
 132 492 132 492 132 488 c 0,17,18
 132 482 132 482 113 463 c 0,19,20
 90 438 90 438 90 413 c 2,21,-1
 90 405 l 2,22,23
 92 373 92 373 107 352 c 0,24,25
 122 330 122 330 147 325 c 0,26,27
 150 324 150 324 160 324 c 0,28,29
 204 324 204 324 238 356 c 0,30,31
 269 382 269 382 277 382 c 0,32,33
 287 382 287 382 308 364 c 0,34,35
 345 335 345 335 356 329 c 0,36,37
 368 323 368 323 389 323 c 0,38,39
 440 323 440 323 459 366 c 0,40,41
 469 387 469 387 469 399 c 0,42,43
 469 413 469 413 452 442 c 0,44,45
 421 494 421 494 421 501 c 0,46,47
 421 506 421 506 436 525 c 0,48,49
 459 552 459 552 459 584 c 128,-1,50
 459 616 459 616 437 638 c 0,51,52
 415 659 415 659 378 659 c 0,53,54
 360 659 360 659 352 665 c 0,55,56
 347 670 347 670 336 698 c 0,57,58
 325 727 325 727 312 734 c 0,59,60
 299 744 299 744 273 744 c 0,61,62
 251 744 251 744 235 735 c 0,0,1
EndSplineSet
Validated: 9
EndChar

StartChar: comma
Encoding: 44 44 10
Width: 298
GlyphClass: 2
Flags: W
LayerCount: 2
Fore
SplineSet
82 110 m 0,0,1
 53 87 53 87 53 54 c 0,2,3
 53 23 53 23 69 7 c 1,4,5
 86 -33 86 -33 86 -48 c 0,6,7
 86 -62 86 -62 71 -102 c 0,8,9
 59 -130 59 -130 59 -151 c 0,10,11
 59 -166 59 -166 70 -193 c 0,12,13
 85 -222 85 -222 130 -222 c 2,14,-1
 132 -222 l 2,15,16
 134 -221 134 -221 136 -221 c 128,-1,17
 138 -221 138 -221 140 -220.5 c 128,-1,18
 142 -220 142 -220 143 -220 c 0,19,20
 162 -219 162 -219 190 -206 c 1,21,22
 214 -179 214 -179 229 -136 c 0,23,24
 245 -88 245 -88 245 -47 c 0,25,26
 245 -32 245 -32 239 1 c 0,27,28
 227 55 227 55 190 93 c 0,29,30
 174 108 174 108 167 111 c 0,31,32
 159 115 159 115 131 118 c 0,33,34
 125 118 125 118 119.5 118.5 c 128,-1,35
 114 119 114 119 112 119.5 c 128,-1,36
 110 120 110 120 109 120 c 0,37,38
 95 120 95 120 82 110 c 0,0,1
EndSplineSet
Validated: 9
EndChar

StartChar: hyphen
Encoding: 45 45 11
Width: 584
GlyphClass: 2
Flags: W
LayerCount: 2
Fore
SplineSet
147 348 m 0,0,1
 104 342 104 342 88 329 c 0,2,3
 50 303 50 303 50 256 c 0,4,5
 50 241 50 241 54 234 c 0,6,7
 58 226 58 226 75 210 c 0,8,9
 102 186 102 186 120 186 c 0,10,11
 131 186 131 186 150 194 c 0,12,13
 170 200 170 200 338 203 c 2,14,-1
 509 206 l 1,15,-1
 521 220 l 2,16,17
 534 235 534 235 534 251 c 0,18,19
 534 264 534 264 526 288 c 0,20,21
 513 322 513 322 488 334 c 0,22,23
 465 344 465 344 378 350 c 0,24,25
 329 355 329 355 258 355 c 0,26,27
 186 355 186 355 147 348 c 0,0,1
EndSplineSet
Validated: 9
EndChar

StartChar: period
Encoding: 46 46 12
Width: 259
GlyphClass: 2
Flags: W
LayerCount: 2
Fore
SplineSet
91 186 m 0,0,1
 39 168 39 168 21 112 c 0,2,3
 15 93 15 93 15 80 c 0,4,5
 15 55 15 55 34 33 c 0,6,7
 63 0 63 0 114 0 c 0,8,9
 144 0 144 0 167 14 c 0,10,11
 186 27 186 27 198 56 c 0,12,13
 209 86 209 86 209 113 c 0,14,15
 209 144 209 144 199 158 c 0,16,17
 181 193 181 193 131 193 c 0,18,19
 109 193 109 193 91 186 c 0,0,1
EndSplineSet
Validated: 9
EndChar

StartChar: zero
Encoding: 48 48 13
Width: 615
GlyphClass: 2
Flags: W
LayerCount: 2
Fore
SplineSet
393 523 m 0,0,1
 410 506 410 506 410 450 c 0,2,3
 410 387 410 387 391 326 c 0,4,5
 378 283 378 283 357 242 c 0,6,7
 333 196 333 196 317 181 c 0,8,9
 295 159 295 159 274 159 c 0,10,11
 240 159 240 159 217 218 c 0,12,13
 209 242 209 242 209 256 c 0,14,15
 209 272 209 272 222 297 c 0,16,17
 238 327 238 327 244 357 c 0,18,19
 257 426 257 426 282 467 c 0,20,21
 308 507 308 507 342 524 c 0,22,23
 363 533 363 533 372 533 c 0,24,25
 383 533 383 533 393 523 c 0,0,1
50 286 m 0,26,27
 50 212 50 212 66 173 c 0,28,29
 106 78 106 78 156 41 c 0,30,31
 187 16 187 16 211 7 c 0,32,33
 231 0 231 0 270 0 c 0,34,35
 319 0 319 0 349 11 c 0,36,37
 378 24 378 24 416 62 c 0,38,39
 485 129 485 129 508 196 c 0,40,41
 516 219 516 219 527 240 c 0,42,43
 559 299 559 299 564 442 c 0,44,45
 564 447 564 447 564.5 462.5 c 128,-1,46
 565 478 565 478 565 489 c 0,47,48
 565 564 565 564 533 611 c 0,49,50
 507 650 507 650 462 673 c 128,-1,51
 417 696 417 696 368 696 c 0,52,53
 334 696 334 696 308 685 c 0,54,55
 248 665 248 665 208 629 c 0,56,57
 167 590 167 590 126 519 c 0,58,59
 80 441 80 441 75 432 c 0,60,61
 50 382 50 382 50 286 c 0,26,27
EndSplineSet
Validated: 9
EndChar

StartChar: one
Encoding: 49 49 14
Width: 555
GlyphClass: 2
Flags: W
LayerCount: 2
Fore
SplineSet
282 669 m 0,0,1
 242 643 242 643 159 566 c 0,2,3
 81 491 81 491 69 470 c 0,4,5
 60 448 60 448 60 419 c 0,6,7
 60 399 60 399 62 394 c 0,8,9
 72 351 72 351 121 351 c 0,10,11
 149 351 149 351 164 359 c 0,12,13
 182 369 182 369 215 399 c 0,14,15
 254 435 254 435 261 435 c 0,16,17
 267 435 267 435 267 422 c 0,18,19
 267 406 267 406 260 357 c 0,20,21
 252 292 252 292 244 242 c 0,22,23
 238 187 238 187 230 172 c 0,24,25
 219 155 219 155 156 143 c 0,26,27
 66 126 66 126 52 73 c 0,28,29
 50 57 50 57 50 55 c 0,30,31
 50 25 50 25 73 2 c 0,32,33
 95 -20 95 -20 130 -20 c 2,34,-1
 132 -20 l 2,35,36
 180 -20 180 -20 310 1 c 0,37,38
 440 20 440 20 460 31 c 0,39,40
 481 42 481 42 499 74 c 0,41,42
 505 86 505 86 505 102 c 0,43,44
 505 121 505 121 497 142 c 0,45,46
 488 159 488 159 467 169 c 0,47,48
 442 183 442 183 424 183 c 0,49,50
 414 183 414 183 406 191 c 0,51,52
 398 198 398 198 398 207 c 128,-1,53
 398 216 398 216 400 226 c 0,54,55
 401 230 401 230 402 236.5 c 128,-1,56
 403 243 403 243 404.5 252.5 c 128,-1,57
 406 262 406 262 407 268 c 2,58,-1
 416 322 l 2,59,60
 432 426 432 426 435 519 c 0,61,62
 436 538 436 538 436 581 c 0,63,64
 436 618 436 618 425 635 c 0,65,66
 411 663 411 663 396 671 c 0,67,68
 379 681 379 681 343 682 c 2,69,-1
 325 682 l 2,70,71
 301 682 301 682 282 669 c 0,0,1
EndSplineSet
Validated: 9
EndChar

StartChar: two
Encoding: 50 50 15
Width: 599
GlyphClass: 2
Flags: W
LayerCount: 2
Fore
SplineSet
293 652 m 0,0,1
 210 635 210 635 136 576 c 0,2,3
 71 523 71 523 71 461 c 0,4,5
 71 451 71 451 73 443 c 0,6,7
 80 419 80 419 100 402 c 0,8,9
 119 387 119 387 147 387 c 0,10,11
 155 387 155 387 161 389 c 0,12,13
 183 393 183 393 217 430 c 0,14,15
 254 468 254 468 269 478 c 0,16,17
 286 488 286 488 302 488 c 0,18,19
 317 488 317 488 320 479 c 2,20,-1
 320 477 l 2,21,22
 322 475 322 475 322 474 c 0,23,24
 322 451 322 451 270 387 c 0,25,26
 215 321 215 321 147 263 c 0,27,28
 50 179 50 179 50 116 c 0,29,30
 50 110 50 110 53 93 c 0,31,32
 59 72 59 72 74 51 c 0,33,34
 92 29 92 29 106 22 c 0,35,36
 144 0 144 0 282 0 c 2,37,-1
 341 0 l 2,38,39
 456 3 456 3 482 7 c 0,40,41
 511 10 511 10 530 30 c 0,42,43
 549 48 549 48 549 81 c 0,44,45
 549 105 549 105 538 119 c 0,46,47
 524 139 524 139 503 147 c 0,48,49
 484 152 484 152 421 157 c 0,50,51
 355 159 355 159 351 159 c 2,52,-1
 332 159 l 2,53,54
 325 158 325 158 319 158 c 0,55,56
 288 154 288 154 288 163 c 0,57,58
 288 170 288 170 336 221 c 0,59,60
 420 305 420 305 459 389 c 0,61,62
 488 448 488 448 488 498 c 0,63,64
 488 544 488 544 464 587 c 0,65,66
 437 635 437 635 382 649 c 0,67,68
 352 657 352 657 334 657 c 0,69,70
 328 657 328 657 293 652 c 0,0,1
EndSplineSet
Validated: 41
EndChar

StartChar: three
Encoding: 51 51 16
Width: 549
GlyphClass: 2
Flags: W
LayerCount: 2
Fore
SplineSet
237 678 m 0,0,1
 231 675 231 675 202 669 c 0,2,3
 177 663 177 663 152 642 c 0,4,5
 124 620 124 620 116 601 c 0,6,7
 108 587 108 587 108 571 c 0,8,9
 108 532 108 532 132 512 c 0,10,11
 149 496 149 496 182 496 c 0,12,13
 196 496 196 496 207 500 c 0,14,15
 208 500 208 500 215.5 502.5 c 128,-1,16
 223 505 223 505 229 507 c 0,17,18
 246 514 246 514 251 515 c 0,19,20
 266 521 266 521 274 521 c 0,21,22
 287 521 287 521 287 509 c 0,23,24
 287 487 287 487 234 426 c 0,25,26
 182 368 182 368 182 322 c 0,27,28
 182 289 182 289 205 266 c 0,29,30
 225 246 225 246 282 222 c 0,31,32
 308 213 308 213 319 205 c 0,33,34
 328 198 328 198 328 188 c 0,35,36
 328 164 328 164 255 164 c 2,37,-1
 237 164 l 1,38,-1
 141 167 l 2,39,40
 94 167 94 167 78 156 c 0,41,42
 50 136 50 136 50 88 c 0,43,44
 50 60 50 60 79 39 c 128,-1,45
 108 18 108 18 159 8 c 0,46,47
 205 0 205 0 248 0 c 0,48,49
 334 0 334 0 396 33 c 0,50,51
 457 65 457 65 486 128 c 0,52,53
 499 154 499 154 499 197 c 128,-1,54
 499 240 499 240 487 265 c 0,55,56
 472 293 472 293 435 326 c 2,57,-1
 395 364 l 1,58,-1
 412 396 l 2,59,60
 457 474 457 474 457 533 c 0,61,62
 457 580 457 580 429 617 c 0,63,64
 397 661 397 661 342 673 c 0,65,66
 308 681 308 681 265 681 c 0,67,68
 248 681 248 681 237 678 c 0,0,1
EndSplineSet
Validated: 9
EndChar

StartChar: four
Encoding: 52 52 17
Width: 600
GlyphClass: 2
Flags: W
LayerCount: 2
Fore
SplineSet
78 626 m 0,0,1
 69 608 69 608 60 514 c 0,2,3
 50 425 50 425 50 354 c 2,4,-1
 50 337 l 2,5,6
 52 258 52 258 63 242 c 0,7,8
 87 209 87 209 132 209 c 0,9,10
 138 209 138 209 238 227 c 0,11,12
 343 246 343 246 352 246 c 2,13,-1
 354 246 l 2,14,15
 370 245 370 245 375 226 c 0,16,17
 381 208 381 208 381 160 c 0,18,19
 381 60 381 60 387 39 c 0,20,21
 395 18 395 18 413 8 c 0,22,23
 432 0 432 0 453 0 c 0,24,25
 478 0 478 0 491 10 c 0,26,27
 504 18 504 18 518 47 c 0,28,29
 529 67 529 67 530 87 c 0,30,31
 532 217 532 217 532 247 c 0,32,33
 532 353 532 353 541 440 c 0,34,35
 550 515 550 515 550 542 c 0,36,37
 550 612 550 612 512 635 c 0,38,39
 496 647 496 647 465 647 c 0,40,41
 439 647 439 647 430 639 c 0,42,43
 387 609 387 609 387 475 c 0,44,45
 387 425 387 425 375 416 c 0,46,47
 366 407 366 407 295 396 c 0,48,49
 235 389 235 389 231 389 c 0,50,51
 222 389 222 389 215 394 c 0,52,53
 211 401 211 401 211 416 c 0,54,55
 211 428 211 428 214 459 c 0,56,57
 220 528 220 528 220 556 c 0,58,59
 220 605 220 605 209 623 c 0,60,61
 188 667 188 667 143 667 c 128,-1,62
 98 667 98 667 78 626 c 0,0,1
EndSplineSet
Validated: 9
EndChar

StartChar: five
Encoding: 53 53 18
Width: 563
GlyphClass: 2
Flags: W
LayerCount: 2
Fore
SplineSet
91 704 m 0,0,1
 75 695 75 695 61 673 c 0,2,3
 50 657 50 657 50 611 c 0,4,5
 50 594 50 594 51 575 c 2,6,-1
 51 525 l 2,7,8
 52 436 52 436 54 413 c 0,9,10
 55 394 55 394 64 375 c 0,11,12
 86 338 86 338 125 307 c 0,13,14
 140 294 140 294 159 292 c 0,15,16
 189 290 189 290 213 291 c 2,17,-1
 261 293 l 2,18,19
 280 293 280 293 297 282 c 0,20,21
 323 267 323 267 323 243 c 0,22,23
 323 204 323 204 267 183 c 2,24,-1
 189 159 l 2,25,26
 149 150 149 150 134 142 c 0,27,28
 120 136 120 136 112 121 c 0,29,30
 99 99 99 99 99 81 c 0,31,32
 99 27 99 27 167 4 c 0,33,34
 175 0 175 0 191 0 c 0,35,36
 257 0 257 0 354 47 c 0,37,38
 475 105 475 105 481 229 c 1,39,-1
 481 241 l 2,40,41
 481 359 481 359 390 419 c 0,42,43
 365 435 365 435 343 441 c 0,44,45
 321 448 321 448 270 451 c 0,46,47
 216 457 216 457 212 461 c 0,48,49
 207 465 207 465 204 492 c 2,50,-1
 204 500 l 2,51,52
 203 503 203 503 203 506 c 0,53,54
 203 528 203 528 218 535 c 0,55,56
 234 543 234 543 283 549 c 0,57,58
 361 558 361 558 395 558 c 0,59,60
 448 558 448 558 469 568 c 0,61,62
 513 589 513 589 513 628 c 0,63,64
 513 642 513 642 504 661 c 0,65,66
 486 697 486 697 453 710 c 0,67,68
 444 713 444 713 399 713 c 0,69,70
 296 713 296 713 221 704 c 0,71,72
 196 701 196 701 190 701 c 0,73,74
 177 701 177 701 156 707 c 0,75,76
 136 714 136 714 121 714 c 0,77,78
 105 714 105 714 91 704 c 0,0,1
EndSplineSet
Validated: 41
EndChar

StartChar: six
Encoding: 54 54 19
Width: 560
GlyphClass: 2
Flags: W
LayerCount: 2
Fore
SplineSet
336 253 m 0,0,1
 348 242 348 242 348 227 c 0,2,3
 348 213 348 213 338 192 c 0,4,5
 317 152 317 152 276 147 c 0,6,7
 270 145 270 145 264 145 c 0,8,9
 251 145 251 145 239 159 c 0,10,11
 218 178 218 178 218 208 c 0,12,13
 218 219 218 219 222 226 c 0,14,15
 228 239 228 239 254 253 c 0,16,17
 280 266 280 266 301 266 c 0,18,19
 324 266 324 266 336 253 c 0,0,1
50 242 m 0,20,21
 50 175 50 175 79 108 c 0,22,23
 110 40 110 40 152 11 c 0,24,25
 195 -20 195 -20 258 -20 c 0,26,27
 362 -20 362 -20 435 56 c 0,28,29
 510 134 510 134 510 230 c 0,30,31
 510 316 510 316 452 377 c 0,32,33
 412 422 412 422 330 431 c 0,34,35
 283 437 283 437 280 439 c 0,36,37
 278 439 278 439 278 442 c 0,38,39
 278 463 278 463 342 525 c 0,40,41
 392 575 392 575 392 598 c 0,42,43
 392 610 392 610 382 629 c 0,44,45
 372 650 372 650 356 659 c 0,46,47
 342 668 342 668 310 668 c 0,48,49
 275 668 275 668 258 658 c 0,50,51
 238 650 238 650 201 613 c 0,52,53
 165 575 165 575 144 542 c 0,54,55
 74 429 74 429 53 279 c 0,56,57
 50 267 50 267 50 242 c 0,20,21
EndSplineSet
Validated: 9
EndChar

StartChar: seven
Encoding: 55 55 20
Width: 551
GlyphClass: 2
Flags: W
LayerCount: 2
Fore
SplineSet
373 711 m 0,0,1
 372 709 372 709 301 701 c 0,2,3
 139 688 139 688 93 665 c 0,4,5
 69 652 69 652 59 637 c 0,6,7
 50 624 50 624 50 596 c 0,8,9
 50 558 50 558 68 542 c 0,10,11
 87 527 87 527 138 527 c 0,12,13
 166 527 166 527 246 536 c 0,14,15
 288 541 288 541 307 541 c 0,16,17
 330 541 330 541 330 529 c 0,18,19
 330 520 330 520 308 468 c 0,20,21
 250 339 250 339 208 220 c 0,22,23
 166 103 166 103 166 72 c 0,24,25
 166 13 166 13 231 1 c 0,26,27
 235 0 235 0 246 0 c 0,28,29
 273 0 273 0 293 23 c 0,30,31
 314 47 314 47 333 100 c 0,32,33
 399 268 399 268 467 428 c 0,34,35
 503 511 503 511 516 550 c 0,36,37
 526 581 526 581 526 617 c 0,38,39
 526 663 526 663 500 685 c 0,40,41
 474 706 474 706 415 711 c 1,42,-1
 400 711 l 2,43,44
 393 712 393 712 386 712 c 0,45,46
 377 712 377 712 373 711 c 0,0,1
EndSplineSet
Validated: 9
EndChar

StartChar: eight
Encoding: 56 56 21
Width: 521
GlyphClass: 2
Flags: W
LayerCount: 2
Fore
SplineSet
279 273 m 0,0,1
 312 243 312 243 312 217 c 0,2,3
 312 199 312 199 293 177 c 0,4,5
 277 163 277 163 265 163 c 0,6,7
 254 163 254 163 237 173 c 0,8,9
 209 192 209 192 209 217 c 0,10,11
 209 221 209 221 213 237 c 0,12,13
 218 251 218 251 233 271 c 0,14,15
 246 288 246 288 255 288 c 0,16,17
 260 288 260 288 279 273 c 0,0,1
50 208 m 0,18,19
 50 145 50 145 82 101 c 0,20,21
 124 41 124 41 181 14 c 0,22,23
 211 0 211 0 264 0 c 0,24,25
 313 0 313 0 340 11 c 0,26,27
 365 22 365 22 401 58 c 0,28,29
 471 129 471 129 471 215 c 0,30,31
 471 234 471 234 468 255 c 0,32,33
 457 315 457 315 424 358 c 2,34,-1
 413 372 l 1,35,-1
 430 405 l 2,36,37
 451 450 451 450 456 472 c 128,-1,38
 461 494 461 494 461 541 c 0,39,40
 461 586 461 586 458 599 c 0,41,42
 454 616 454 616 444 632 c 0,43,44
 430 657 430 657 400 687 c 0,45,46
 371 713 371 713 343 727 c 0,47,48
 296 748 296 748 232 748 c 0,49,50
 188 748 188 748 166 736 c 0,51,52
 132 718 132 718 100 674 c 0,53,54
 69 629 69 629 57 579 c 0,55,56
 50 549 50 549 50 527 c 0,57,58
 50 485 50 485 73 419 c 2,59,-1
 92 362 l 1,60,-1
 78 329 l 2,61,62
 50 269 50 269 50 208 c 0,18,19
209 524 m 0,63,64
 209 530 209 530 214 552 c 0,65,66
 226 590 226 590 248 590 c 0,67,68
 260 590 260 590 276 580 c 0,69,70
 306 562 306 562 306 529 c 0,71,72
 306 528 306 528 304 512 c 0,73,74
 297 492 297 492 283 479 c 0,75,76
 268 463 268 463 252 463 c 0,77,78
 234 463 234 463 222 481 c 0,79,80
 209 500 209 500 209 524 c 0,63,64
EndSplineSet
Validated: 9
EndChar

StartChar: nine
Encoding: 57 57 22
Width: 606
GlyphClass: 2
Flags: W
LayerCount: 2
Fore
SplineSet
309 507 m 0,0,1
 312 504 312 504 312 498 c 0,2,3
 312 471 312 471 288 447 c 0,4,5
 263 419 263 419 236 419 c 0,6,7
 231 419 231 419 230 420 c 0,8,9
 220 423 220 423 220 434 c 0,10,11
 220 450 220 450 239 474 c 0,12,13
 257 496 257 496 284 507 c 0,14,15
 303 515 303 515 309 507 c 0,0,1
50 415 m 0,16,17
 50 380 50 380 64 350 c 0,18,19
 88 301 88 301 162 268 c 0,20,21
 192 253 192 253 227 253 c 0,22,23
 279 253 279 253 337 282 c 0,24,25
 364 294 364 294 373 294 c 2,26,-1
 376 294 l 2,27,28
 384 291 384 291 384 255 c 0,29,30
 384 231 384 231 378 162 c 0,31,32
 375 132 375 132 375 110 c 0,33,34
 375 31 375 31 423 7 c 0,35,36
 436 0 436 0 459 0 c 0,37,38
 477 0 477 0 492 6 c 0,39,40
 517 17 517 17 524 48 c 0,41,42
 532 77 532 77 537 177 c 0,43,44
 544 297 544 297 547 345 c 0,45,46
 556 487 556 487 556 559 c 2,47,-1
 556 593 l 2,48,49
 556 627 556 627 554 641 c 0,50,51
 553 648 553 648 544 659 c 0,52,53
 515 688 515 688 486 688 c 0,54,55
 464 688 464 688 448 676 c 0,56,57
 418 655 418 655 408 655 c 0,58,59
 403 655 403 655 388 661 c 0,60,61
 353 676 353 676 314 676 c 0,62,63
 254 676 254 676 196 646 c 128,-1,64
 138 616 138 616 102 562 c 0,65,66
 50 488 50 488 50 415 c 0,16,17
EndSplineSet
Validated: 9
EndChar

StartChar: colon
Encoding: 58 58 23
Width: 262
GlyphClass: 2
Flags: W
LayerCount: 2
Fore
SplineSet
97 212 m 0,0,1
 62 194 62 194 56 155 c 0,2,3
 55 151 55 151 55 138 c 0,4,5
 55 94 55 94 82 67 c 0,6,7
 94 55 94 55 101 52 c 0,8,9
 111 50 111 50 129 50 c 0,10,11
 180 50 180 50 201 84 c 0,12,13
 212 103 212 103 212 131 c 128,-1,14
 212 159 212 159 202 176 c 0,15,16
 176 218 176 218 124 218 c 0,17,18
 108 218 108 218 97 212 c 0,0,1
50 372 m 0,19,20
 50 337 50 337 73 312 c 0,21,22
 94 289 94 289 131 289 c 0,23,24
 136 289 136 289 152 291 c 0,25,26
 175 297 175 297 186 308 c 0,27,28
 196 317 196 317 204 343 c 0,29,30
 210 366 210 366 210 379 c 0,31,32
 210 402 210 402 193 427 c 0,33,34
 166 460 166 460 132 460 c 0,35,36
 116 460 116 460 96 451 c 0,37,38
 50 425 50 425 50 372 c 0,19,20
EndSplineSet
Validated: 9
EndChar

StartChar: less
Encoding: 60 60 24
Width: 480
GlyphClass: 2
Flags: W
LayerCount: 2
Fore
SplineSet
290 539 m 0,0,1
 209 498 209 498 118 402 c 0,2,3
 76 359 76 359 62 332 c 0,4,5
 50 308 50 308 50 267 c 2,6,-1
 50 249 l 2,7,8
 50 234 50 234 57 223 c 0,9,10
 66 210 66 210 92 183 c 0,11,12
 136 139 136 139 162 123 c 0,13,14
 177 113 177 113 251 58 c 0,15,16
 308 16 308 16 324 8 c 0,17,18
 343 0 343 0 372 0 c 0,19,20
 405 0 405 0 418 11 c 0,21,22
 428 22 428 22 430 59 c 2,23,-1
 430 72 l 2,24,25
 430 98 430 98 420 115 c 0,26,27
 407 132 407 132 357 174 c 0,28,29
 298 225 298 225 261 250 c 0,30,31
 231 271 231 271 231 280 c 0,32,33
 231 287 231 287 268 324 c 0,34,35
 304 360 304 360 333 381 c 0,36,37
 362 400 362 400 383 412 c 0,38,39
 407 423 407 423 414 435 c 0,40,41
 420 446 420 446 420 474 c 0,42,43
 420 505 420 505 413 519 c 0,44,45
 407 533 407 533 389 547 c 0,46,47
 371 559 371 559 351 559 c 0,48,49
 325 559 325 559 290 539 c 0,0,1
EndSplineSet
Validated: 9
EndChar

StartChar: greater
Encoding: 62 62 25
Width: 478
GlyphClass: 2
Flags: W
LayerCount: 2
Fore
SplineSet
81 559 m 0,0,1
 50 540 50 540 50 508 c 0,2,3
 50 496 50 496 56 473 c 0,4,5
 62 448 62 448 84 430 c 0,6,7
 105 412 105 412 166 380 c 0,8,9
 242 342 242 342 243 334 c 2,10,-1
 243 332 l 1,11,-1
 244 331 l 1,12,13
 244 321 244 321 162 232 c 0,14,15
 61 122 61 122 61 74 c 0,16,17
 61 41 61 41 98 16 c 0,18,19
 118 0 118 0 137 0 c 0,20,21
 157 0 157 0 177 19 c 0,22,23
 220 57 220 57 308 154 c 0,24,25
 399 251 399 251 407 269 c 0,26,27
 428 312 428 312 428 343 c 0,28,29
 428 388 428 388 380 436 c 0,30,31
 349 465 349 465 244 518 c 0,32,33
 137 570 137 570 115 570 c 0,34,35
 105 570 105 570 81 559 c 0,0,1
EndSplineSet
Validated: 9
EndChar

StartChar: A
Encoding: 65 65 26
Width: 637
GlyphClass: 2
Flags: W
LayerCount: 2
Fore
SplineSet
375 325 m 0,0,1
 389 282 389 282 389 265 c 0,2,3
 389 250 389 250 375 243 c 0,4,5
 354 235 354 235 328 235 c 0,6,7
 298 235 298 235 292 243 c 0,8,9
 291 244 291 244 291 248 c 0,10,11
 291 268 291 268 318 319 c 128,-1,12
 345 370 345 370 357 370 c 0,13,14
 362 370 362 370 375 325 c 0,0,1
25 48 m 0,15,16
 25 29 25 29 35 10 c 0,17,18
 46 -10 46 -10 61 -19 c 0,19,20
 75 -27 75 -27 101 -27 c 0,21,22
 124 -27 124 -27 137 -19 c 0,23,24
 151 -8 151 -8 171 20 c 0,25,26
 191 51 191 51 200 57 c 0,27,28
 207 64 207 64 295 73 c 0,29,30
 379 83 379 83 423 83 c 2,31,-1
 431 83 l 2,32,33
 448 82 448 82 454 77 c 0,34,35
 457 75 457 75 472 51 c 0,36,37
 487 25 487 25 507 10 c 0,38,39
 524 0 524 0 545 0 c 0,40,41
 584 0 584 0 603 32 c 0,42,43
 612 46 612 46 612 66 c 0,44,45
 612 97 612 97 569 228 c 0,46,47
 526 356 526 356 510 415 c 0,48,49
 484 510 484 510 449 557 c 0,50,51
 415 601 415 601 364 607 c 0,52,53
 362 607 362 607 357 607.5 c 128,-1,54
 352 608 352 608 348 608 c 0,55,56
 334 608 334 608 322 599 c 0,57,58
 277 571 277 571 227 479 c 0,59,60
 180 395 180 395 109 243 c 0,61,62
 30 78 30 78 26 57 c 1,63,-1
 26 53 l 2,64,65
 25 51 25 51 25 48 c 0,15,16
EndSplineSet
Validated: 9
EndChar

StartChar: B
Encoding: 66 66 27
Width: 610
GlyphClass: 2
Flags: W
LayerCount: 2
Fore
SplineSet
331 221 m 0,0,1
 379 212 379 212 379 202 c 0,2,3
 379 191 379 191 318 176 c 0,4,5
 308 174 308 174 294 170 c 2,6,-1
 273 164 l 2,7,8
 270 164 270 164 266 163 c 256,9,10
 262 162 262 162 262 162 c 1,11,-1
 259 162 l 2,12,13
 248 162 248 162 241 172 c 0,14,15
 232 182 232 182 232 193 c 0,16,17
 232 206 232 206 241 218 c 0,18,19
 247 230 247 230 271 230 c 0,20,21
 294 230 294 230 331 221 c 0,0,1
15 580 m 0,22,23
 15 554 15 554 41 522 c 0,24,25
 57 505 57 505 63 481 c 0,26,27
 69 451 69 451 70 390 c 0,28,29
 78 198 78 198 95 140 c 0,30,31
 105 104 105 104 105 68 c 0,32,33
 105 34 105 34 111 21 c 0,34,35
 115 7 115 7 133 -3 c 0,36,37
 149 -13 149 -13 177 -13 c 0,38,39
 211 -13 211 -13 294 4 c 0,40,41
 400 25 400 25 454 48 c 0,42,43
 506 70 506 70 542 109 c 0,44,45
 585 155 585 155 585 203 c 0,46,47
 585 232 585 232 569 266 c 0,48,49
 541 319 541 319 460 350 c 0,50,51
 411 369 411 369 411 382 c 0,52,53
 411 384 411 384 413 390 c 0,54,55
 424 409 424 409 434 419 c 0,56,57
 480 473 480 473 480 536 c 0,58,59
 480 549 480 549 476 567 c 0,60,61
 464 615 464 615 399 644 c 0,62,63
 334 672 334 672 238 672 c 2,64,-1
 232 672 l 1,65,-1
 207 672 l 2,66,67
 198 671 198 671 184 671 c 2,68,-1
 174 671 l 1,69,-1
 111 660 l 2,70,71
 70 654 70 654 49 644 c 0,72,73
 32 633 32 633 22 612 c 0,74,75
 15 595 15 595 15 580 c 0,22,23
221 472 m 0,76,77
 221 520 221 520 256 520 c 0,78,79
 266 520 266 520 282 514 c 0,80,81
 296 509 296 509 296 502 c 0,82,83
 296 497 296 497 265 466 c 0,84,85
 240 441 240 441 231 441 c 0,86,87
 221 441 221 441 221 472 c 0,76,77
EndSplineSet
Validated: 9
EndChar

StartChar: C
Encoding: 67 67 28
Width: 585
GlyphClass: 2
Flags: W
LayerCount: 2
Fore
SplineSet
282 576 m 0,0,1
 252 566 252 566 224 549 c 0,2,3
 202 536 202 536 169 505 c 0,4,5
 136 473 136 473 119 449 c 0,6,7
 87 403 87 403 70 341 c 0,8,9
 50 275 50 275 50 222 c 0,10,11
 50 216 50 216 51 212 c 2,12,-1
 51 203 l 1,13,14
 63 51 63 51 185 11 c 0,15,16
 216 0 216 0 246 0 c 0,17,18
 272 0 272 0 282 1 c 0,19,20
 396 6 396 6 465 43 c 0,21,22
 535 79 535 79 535 130 c 0,23,24
 535 148 535 148 529 161 c 0,25,26
 515 196 515 196 464 196 c 0,27,28
 432 196 432 196 376 179 c 0,29,30
 319 161 319 161 278 161 c 0,31,32
 207 161 207 161 207 224 c 0,33,34
 207 240 207 240 214 273 c 0,35,36
 225 315 225 315 239 337 c 0,37,38
 251 359 251 359 283 389 c 0,39,40
 328 430 328 430 406 437 c 0,41,42
 435 438 435 438 452 450 c 0,43,44
 465 460 465 460 470 485 c 0,45,46
 471 488 471 488 471 498 c 0,47,48
 471 542 471 542 452 562 c 0,49,50
 428 589 428 589 360 589 c 0,51,52
 318 589 318 589 282 576 c 0,0,1
EndSplineSet
Validated: 9
EndChar

StartChar: D
Encoding: 68 68 29
Width: 582
GlyphClass: 2
Flags: W
LayerCount: 2
Fore
SplineSet
287 455 m 0,0,1
 396 413 396 413 396 333 c 0,2,3
 396 307 396 307 386 287 c 0,4,5
 370 250 370 250 325 217 c 0,6,7
 281 185 281 185 244 183 c 2,8,-1
 225 182 l 1,9,-1
 224 213 l 2,10,11
 224 228 224 228 217 315 c 0,12,13
 215 369 215 369 215 373 c 0,14,15
 215 459 215 459 228 466 c 0,16,17
 232 469 232 469 239 469 c 0,18,19
 248 469 248 469 287 455 c 0,0,1
50 53 m 0,20,21
 50 30 50 30 75 8 c 0,22,23
 105 -16 105 -16 134 -16 c 128,-1,24
 163 -16 163 -16 226 2 c 0,25,26
 378 45 378 45 457 116 c 0,27,28
 537 187 537 187 555 297 c 0,29,30
 557 305 557 305 557 321 c 0,31,32
 557 362 557 362 542 413 c 0,33,34
 526 466 526 466 507 494 c 0,35,36
 482 532 482 532 414 569 c 0,37,38
 346 607 346 607 272 626 c 0,39,40
 243 634 243 634 196 634 c 0,41,42
 89 634 89 634 68 586 c 0,43,44
 62 573 62 573 62 531 c 0,45,46
 62 493 62 493 65 319 c 0,47,48
 69 220 69 220 69 169 c 0,49,50
 69 126 69 126 59 95 c 0,51,52
 50 68 50 68 50 53 c 0,20,21
EndSplineSet
Validated: 9
EndChar

StartChar: E
Encoding: 69 69 30
Width: 483
GlyphClass: 2
Flags: W
LayerCount: 2
Fore
SplineSet
245 630 m 0,0,1
 119 622 119 622 89 606 c 0,2,3
 60 591 60 591 51 548 c 0,4,5
 50 546 50 546 50 539 c 0,6,7
 50 524 50 524 56 503 c 0,8,9
 64 474 64 474 68 299 c 0,10,11
 69 183 69 183 73 144 c 0,12,13
 76 111 76 111 85 81 c 0,14,15
 97 34 97 34 117 17 c 128,-1,16
 137 0 137 0 185 0 c 0,17,18
 207 0 207 0 287 8 c 0,19,20
 348 16 348 16 368 23 c 0,21,22
 387 30 387 30 401 49 c 0,23,24
 412 68 412 68 412 95 c 0,25,26
 412 118 412 118 404 132 c 0,27,28
 393 152 393 152 374 158 c 128,-1,29
 355 164 355 164 303 164 c 0,30,31
 237 164 237 164 231 173 c 0,32,33
 222 181 222 181 222 193 c 0,34,35
 222 208 222 208 234 220 c 0,36,37
 244 232 244 232 289 238 c 0,38,39
 352 246 352 246 378 261 c 0,40,41
 407 276 407 276 421 305 c 0,42,43
 429 324 429 324 429 338 c 0,44,45
 429 384 429 384 378 397 c 0,46,47
 362 401 362 401 354 401 c 128,-1,48
 346 401 346 401 310 395 c 0,49,50
 268 386 268 386 254 386 c 0,51,52
 227 386 227 386 227 414 c 0,53,54
 227 428 227 428 232 445 c 0,55,56
 238 463 238 463 254 469 c 0,57,58
 272 476 272 476 326 480 c 0,59,60
 381 486 381 486 401 500 c 0,61,62
 433 521 433 521 433 564 c 0,63,64
 433 605 433 605 389 625 c 0,65,66
 371 634 371 634 343 634 c 0,67,68
 336 634 336 634 323.5 633.5 c 128,-1,69
 311 633 311 633 287.5 632 c 128,-1,70
 264 631 264 631 245 630 c 0,0,1
EndSplineSet
Validated: 9
EndChar

StartChar: F
Encoding: 70 70 31
Width: 524
GlyphClass: 2
Flags: W
LayerCount: 2
Fore
SplineSet
132 36 m 0,0,1
 141 18 141 18 163 8 c 0,2,3
 181 0 181 0 197 0 c 0,4,5
 227 0 227 0 252 30 c 0,6,7
 262 42 262 42 270 77 c 0,8,9
 278 115 278 115 278 147 c 0,10,11
 278 169 278 169 289 179 c 0,12,13
 299 187 299 187 326 192 c 0,14,15
 402 201 402 201 430 220 c 128,-1,16
 458 239 458 239 458 270 c 0,17,18
 458 289 458 289 444 314 c 0,19,20
 429 337 429 337 415 345 c 0,21,22
 400 354 400 354 368 354 c 0,23,24
 367 354 367 354 363.5 353.5 c 128,-1,25
 360 353 360 353 357 353 c 0,26,27
 355 353 355 353 351 352.5 c 128,-1,28
 347 352 347 352 345 352 c 0,29,30
 341 352 341 352 330.5 351.5 c 128,-1,31
 320 351 320 351 313 351 c 0,32,33
 289 351 289 351 283 362 c 0,34,35
 278 374 278 374 278 413 c 0,36,37
 278 462 278 462 289 470 c 0,38,39
 299 478 299 478 366 489 c 0,40,41
 427 496 427 496 443 506 c 0,42,43
 474 521 474 521 474 568 c 0,44,45
 474 612 474 612 444 632 c 0,46,47
 429 643 429 643 374 643 c 0,48,49
 338 643 338 643 304 637 c 0,50,51
 269 630 269 630 225 630 c 128,-1,52
 181 630 181 630 130 613 c 0,53,54
 83 598 83 598 75 590 c 0,55,56
 64 579 64 579 54 574 c 0,57,58
 25 556 25 556 25 514 c 0,59,60
 25 488 25 488 40 473 c 0,61,62
 52 461 52 461 74 455 c 0,63,64
 102 446 102 446 108 428 c 0,65,66
 114 408 114 408 114 329 c 0,67,68
 114 268 114 268 119 207 c 128,-1,69
 124 146 124 146 124 94 c 0,70,71
 124 55 124 55 132 36 c 0,0,1
EndSplineSet
Validated: 9
EndChar

StartChar: G
Encoding: 71 71 32
Width: 715
GlyphClass: 2
Flags: W
LayerCount: 2
Fore
SplineSet
307 647 m 0,0,1
 260 637 260 637 204 588 c 0,2,3
 148 540 148 540 117 483 c 0,4,5
 50 361 50 361 50 243 c 0,6,7
 50 227 50 227 53 191 c 0,8,9
 56 137 56 137 68 109 c 0,10,11
 80 78 80 78 108 49 c 0,12,13
 174 -20 174 -20 280 -20 c 0,14,15
 385 -20 385 -20 475 49 c 2,16,-1
 514 79 l 1,17,-1
 536 55 l 2,18,19
 563 25 563 25 593 25 c 128,-1,20
 623 25 623 25 645 50 c 2,21,-1
 663 68 l 1,22,-1
 665 153 l 1,23,-1
 665 178 l 2,24,25
 665 252 665 252 651 285 c 0,26,27
 638 316 638 316 597 336 c 0,28,29
 572 349 572 349 536 349 c 2,30,-1
 510 349 l 2,31,32
 454 349 454 349 402 342 c 0,33,34
 358 338 358 338 338 324 c 0,35,36
 320 310 320 310 311 282 c 0,37,38
 306 257 306 257 306 253 c 0,39,40
 306 220 306 220 350 185 c 0,41,42
 364 173 364 173 358 166 c 0,43,44
 338 143 338 143 283 143 c 2,45,-1
 274 143 l 2,46,47
 241 146 241 146 230 157 c 0,48,49
 217 167 217 167 211 200 c 0,50,51
 207 216 207 216 207 232 c 0,52,53
 207 252 207 252 213 277 c 0,54,55
 251 473 251 473 390 512 c 0,56,57
 443 529 443 529 443 580 c 0,58,59
 443 613 443 613 416 637 c 0,60,61
 400 651 400 651 350 651 c 0,62,63
 324 651 324 651 307 647 c 0,0,1
EndSplineSet
Validated: 9
EndChar

StartChar: H
Encoding: 72 72 33
Width: 603
GlyphClass: 2
Flags: W
LayerCount: 2
Fore
SplineSet
425 606 m 0,0,1
 401 567 401 567 401 474 c 0,2,3
 401 358 401 358 384 326 c 0,4,5
 378 314 378 314 293 297 c 0,6,7
 260 291 260 291 252 291 c 0,8,9
 242 291 242 291 239 294 c 0,10,11
 231 300 231 300 229 434 c 0,12,13
 227 528 227 528 226 550 c 0,14,15
 224 575 224 575 216 590 c 0,16,17
 194 629 194 629 159 629 c 0,18,19
 121 629 121 629 93 586 c 0,20,21
 83 574 83 574 81 553 c 0,22,23
 79 542 79 542 76 449 c 0,24,25
 71 334 71 334 66 297 c 0,26,27
 60 254 60 254 42 218 c 0,28,29
 25 181 25 181 25 165 c 0,30,31
 25 144 25 144 47 121 c 0,32,33
 65 103 65 103 72 84 c 0,34,35
 77 64 77 64 77 24 c 0,36,37
 77 -54 77 -54 116 -74 c 0,38,39
 129 -81 129 -81 147 -81 c 0,40,41
 191 -81 191 -81 211 -46 c 0,42,43
 230 -8 230 -8 230 69 c 0,44,45
 230 103 230 103 240 113 c 0,46,47
 248 121 248 121 304 136 c 0,48,49
 362 150 362 150 382 150 c 0,50,51
 388 150 388 150 390 148 c 0,52,53
 396 143 396 143 401 104 c 0,54,55
 402 77 402 77 407 68 c 0,56,57
 412 58 412 58 423 47 c 0,58,59
 443 30 443 30 463 30 c 0,60,61
 509 30 509 30 530 59 c 0,62,63
 547 85 547 85 551 378 c 0,64,65
 553 430 553 430 553 477 c 0,66,67
 553 548 553 548 547 573 c 256,68,69
 541 598 541 598 522 614 c 0,70,71
 505 631 505 631 478 631 c 0,72,73
 443 631 443 631 425 606 c 0,0,1
EndSplineSet
Validated: 9
EndChar

StartChar: I
Encoding: 73 73 34
Width: 311
GlyphClass: 2
Flags: W
LayerCount: 2
Fore
SplineSet
127 587 m 0,0,1
 75 571 75 571 75 493 c 2,2,-1
 75 487 l 1,3,4
 82 62 82 62 93 37 c 0,5,6
 113 -7 113 -7 158 -10 c 2,7,-1
 169 -10 l 2,8,9
 206 -10 206 -10 225 23 c 0,10,11
 233 35 233 35 234 63 c 0,12,13
 236 101 236 101 236 206 c 0,14,15
 236 406 236 406 227 484 c 0,16,17
 218 563 218 563 191 579 c 0,18,19
 174 590 174 590 148 590 c 0,20,21
 133 590 133 590 127 587 c 0,0,1
EndSplineSet
Validated: 9
EndChar

StartChar: K
Encoding: 75 75 35
Width: 571
GlyphClass: 2
Flags: W
LayerCount: 2
Fore
SplineSet
98 630 m 0,0,1
 63 613 63 613 55 566 c 0,2,3
 50 540 50 540 50 367 c 0,4,5
 50 192 50 192 60 122 c 0,6,7
 69 51 69 51 97 21 c 0,8,9
 116 0 116 0 147 0 c 128,-1,10
 178 0 178 0 197 19 c 0,11,12
 208 30 208 30 209 37 c 0,13,14
 214 52 214 52 214 75 c 0,15,16
 214 119 214 119 220 119 c 0,17,18
 228 119 228 119 295 72 c 0,19,20
 361 26 361 26 387 14 c 0,21,22
 415 0 415 0 448 0 c 2,23,-1
 463 0 l 2,24,25
 484 0 484 0 499 16 c 0,26,27
 521 41 521 41 521 72 c 128,-1,28
 521 103 521 103 509 115 c 0,29,30
 504 120 504 120 428 180 c 0,31,32
 351 240 351 240 349 245 c 0,33,34
 347 248 347 248 347 251 c 0,35,36
 347 253 347 253 348 255 c 0,37,38
 354 267 354 267 450 366 c 0,39,40
 486 404 486 404 501 430 c 0,41,42
 517 460 517 460 517 485 c 0,43,44
 517 486 517 486 517.5 488 c 128,-1,45
 518 490 518 490 518 492 c 2,46,-1
 518 498 l 2,47,48
 518 530 518 530 501 547 c 0,49,50
 484 565 484 565 457 565 c 1,51,-1
 455 564 l 2,52,53
 453 564 453 564 452 564 c 2,54,-1
 446 564 l 2,55,56
 433 564 433 564 411 545 c 0,57,58
 394 532 394 532 325 463 c 0,59,60
 236 374 236 374 226 374 c 0,61,62
 223 374 223 374 220 378 c 0,63,64
 213 390 213 390 213 426 c 0,65,66
 213 536 213 536 195 597 c 0,67,68
 186 623 186 623 174 631 c 0,69,70
 162 640 162 640 139 640 c 0,71,72
 118 640 118 640 98 630 c 0,0,1
EndSplineSet
Validated: 9
EndChar

StartChar: L
Encoding: 76 76 36
Width: 574
GlyphClass: 2
Flags: W
LayerCount: 2
Fore
SplineSet
151 628 m 0,0,1
 142 626 142 626 125 605 c 0,2,3
 109 582 109 582 101 563 c 0,4,5
 98 553 98 553 90.5 523 c 128,-1,6
 83 493 83 493 81 484 c 0,7,8
 71 424 71 424 71 378 c 0,9,10
 71 350 71 350 74 278 c 0,11,12
 78 218 78 218 78 177 c 0,13,14
 78 123 78 123 60 84 c 0,15,16
 50 61 50 61 50 50 c 0,17,18
 50 40 50 40 53 32 c 0,19,20
 66 -20 66 -20 143 -20 c 0,21,22
 146 -20 146 -20 151.5 -19.5 c 128,-1,23
 157 -19 157 -19 166.5 -18.5 c 128,-1,24
 176 -18 176 -18 184 -18 c 0,25,26
 234 -11 234 -11 319 -3 c 0,27,28
 460 9 460 9 499 28 c 0,29,30
 525 40 525 40 536 52 c 0,31,32
 546 64 546 64 548 87 c 2,33,-1
 548 92 l 2,34,35
 549 94 549 94 549 97 c 0,36,37
 549 132 549 132 505 153 c 0,38,39
 485 163 485 163 431 163 c 0,40,41
 396 163 396 163 333 157 c 0,42,43
 285 153 285 153 276 153 c 0,44,45
 254 153 254 153 243 163 c 0,46,47
 234 174 234 174 234 229 c 0,48,49
 234 309 234 309 235 346 c 0,50,51
 237 487 237 487 241 527 c 0,52,53
 242 533 242 533 242 550 c 0,54,55
 242 568 242 568 234 587 c 0,56,57
 210 631 210 631 167 631 c 0,58,59
 156 631 156 631 151 628 c 0,0,1
EndSplineSet
Validated: 9
EndChar

StartChar: M
Encoding: 77 77 37
Width: 824
GlyphClass: 2
Flags: W
LayerCount: 2
Fore
SplineSet
558 542 m 0,0,1
 539 537 539 537 520 515 c 0,2,3
 499 491 499 491 463 440 c 0,4,5
 417 371 417 371 408 366 c 0,6,7
 406 365 406 365 404 365 c 0,8,9
 392 365 392 365 327 445 c 0,10,11
 277 506 277 506 251 523 c 0,12,13
 226 541 226 541 190 541 c 0,14,15
 126 541 126 541 107 478 c 0,16,17
 101 462 101 462 92 400 c 128,-1,18
 83 338 83 338 80 307 c 0,19,20
 77 270 77 270 65 209 c 0,21,22
 50 132 50 132 50 92 c 0,23,24
 50 62 50 62 60 40 c 0,25,26
 71 21 71 21 90 11 c 0,27,28
 108 -1 108 -1 125 -1 c 256,29,30
 142 -1 142 -1 158 8 c 0,31,32
 176 17 176 17 182 28 c 0,33,34
 183 31 183 31 195 78 c 0,35,36
 204 122 204 122 204 131 c 0,37,38
 204 142 204 142 213 189 c 0,39,40
 223 235 223 235 223 244 c 0,41,42
 227 267 227 267 236 279 c 2,43,-1
 245 290 l 1,44,-1
 258 274 l 2,45,46
 326 192 326 192 362 183 c 0,47,48
 373 179 373 179 388 179 c 0,49,50
 460 179 460 179 531 262 c 0,51,52
 565 305 565 305 572 305 c 0,53,54
 576 305 576 305 582 282 c 0,55,56
 587 261 587 261 607 150 c 0,57,58
 623 55 623 55 639 25 c 0,59,60
 663 -20 663 -20 704 -20 c 0,61,62
 734 -20 734 -20 758 7 c 2,63,-1
 774 26 l 1,64,-1
 772 85 l 2,65,66
 763 264 763 264 723 410 c 0,67,68
 699 490 699 490 678 516 c 0,69,70
 656 541 656 541 607 544 c 2,71,-1
 594 544 l 2,72,73
 589 545 589 545 583 545 c 0,74,75
 568 545 568 545 558 542 c 0,0,1
EndSplineSet
Validated: 9
EndChar

StartChar: N
Encoding: 78 78 38
Width: 706
GlyphClass: 2
Flags: W
LayerCount: 2
Fore
SplineSet
558 593 m 0,0,1
 524 582 524 582 512 554 c 0,2,3
 501 527 501 527 493 437 c 0,4,5
 493 433 493 433 492 424.5 c 128,-1,6
 491 416 491 416 490.5 407 c 128,-1,7
 490 398 490 398 489 389 c 2,8,-1
 486 342 l 2,9,10
 485 330 485 330 485 319 c 0,11,12
 485 294 485 294 477 289 c 0,13,14
 475 287 475 287 474 287 c 0,15,16
 471 287 471 287 458.5 301.5 c 128,-1,17
 446 316 446 316 419.5 346 c 128,-1,18
 393 376 393 376 367 402 c 0,19,20
 299 470 299 470 278 488 c 0,21,22
 255 506 255 506 237 511 c 0,23,24
 213 518 213 518 189 529 c 0,25,26
 168 539 168 539 151 539 c 0,27,28
 120 539 120 539 97 510 c 128,-1,29
 74 481 74 481 68 430 c 0,30,31
 50 278 50 278 50 78 c 2,32,-1
 50 -18 l 1,33,-1
 69 -38 l 2,34,35
 82 -51 82 -51 91 -54 c 0,36,37
 102 -58 102 -58 124 -59 c 0,38,39
 134 -61 134 -61 143 -61 c 0,40,41
 159 -61 159 -61 171 -49 c 0,42,43
 195 -25 195 -25 206 111 c 0,44,45
 219 301 219 301 230 301 c 0,46,47
 240 301 240 301 357 183 c 0,48,49
 392 148 392 148 425 110.5 c 128,-1,50
 458 73 458 73 473.5 54.5 c 128,-1,51
 489 36 489 36 492 35 c 0,52,53
 507 30 507 30 523 30 c 0,54,55
 555 30 555 30 584 50 c 0,56,57
 612 67 612 67 621 99 c 0,58,59
 632 138 632 138 640 260 c 0,60,61
 642 280 642 280 645 323 c 2,62,-1
 650 398 l 2,63,64
 656 499 656 499 656 517 c 0,65,66
 656 544 656 544 645 560 c 0,67,68
 618 596 618 596 582 596 c 0,69,70
 572 596 572 596 558 593 c 0,0,1
EndSplineSet
Validated: 9
EndChar

StartChar: O
Encoding: 79 79 39
Width: 648
GlyphClass: 2
Flags: W
LayerCount: 2
Fore
SplineSet
398 447 m 0,0,1
 435 420 435 420 435 368 c 0,2,3
 435 352 435 352 427 309 c 0,4,5
 417 265 417 265 411 250 c 0,6,7
 396 214 396 214 363 187 c 128,-1,8
 330 160 330 160 295 153 c 1,9,-1
 290 153 l 2,10,11
 288 152 288 152 284 152 c 0,12,13
 255 152 255 152 231 173 c 0,14,15
 208 194 208 194 208 222 c 0,16,17
 208 256 208 256 237 343 c 0,18,19
 267 430 267 430 283 444 c 0,20,21
 299 460 299 460 328 460 c 2,22,-1
 345 460 l 2,23,24
 382 459 382 459 398 447 c 0,0,1
50 217 m 0,25,26
 50 136 50 136 79 92 c 0,27,28
 92 71 92 71 118 47 c 0,29,30
 144 22 144 22 164 13 c 0,31,32
 184 3 184 3 222 -8 c 0,33,34
 264 -18 264 -18 281 -18 c 0,35,36
 322 -18 322 -18 400 18 c 0,37,38
 477 54 477 54 503 86 c 0,39,40
 538 130 538 130 566 207 c 0,41,42
 598 295 598 295 598 374 c 0,43,44
 598 471 598 471 552 536 c 0,45,46
 529 569 529 569 491 590 c 0,47,48
 456 609 456 609 369 635 c 0,49,50
 333 646 333 646 312 646 c 0,51,52
 284 646 284 646 248 627 c 0,53,54
 215 609 215 609 182 576 c 0,55,56
 149 545 149 545 130 513 c 0,57,58
 93 451 93 451 63 331 c 0,59,60
 50 263 50 263 50 217 c 0,25,26
EndSplineSet
Validated: 9
EndChar

StartChar: P
Encoding: 80 80 40
Width: 547
GlyphClass: 2
Flags: W
LayerCount: 2
Fore
SplineSet
331 429 m 0,0,1
 350 417 350 417 350 404 c 0,2,3
 350 392 350 392 330 375 c 0,4,5
 313 361 313 361 290 350 c 0,6,7
 265 340 265 340 256 340 c 2,8,-1
 252 340 l 1,9,10
 245 344 245 344 245 390 c 0,11,12
 245 438 245 438 255 448 c 0,13,14
 266 459 266 459 287 450 c 0,15,16
 309 443 309 443 331 429 c 0,0,1
50 498 m 0,17,18
 50 477 50 477 68 454 c 0,19,20
 87 429 87 429 87 426 c 0,21,22
 87 419 87 419 86 408 c 2,23,-1
 82 361 l 2,24,25
 82 359 82 359 80.5 336.5 c 128,-1,26
 79 314 79 314 79 303 c 0,27,28
 71 183 71 183 71 137 c 0,29,30
 71 46 71 46 79 27 c 0,31,32
 93 -11 93 -11 144 -17 c 0,33,34
 149 -17 149 -17 152 -18 c 2,35,-1
 157 -18 l 2,36,37
 171 -18 171 -18 193 7 c 0,38,39
 218 33 218 33 221 59 c 0,40,41
 228 134 228 134 235 142 c 0,42,43
 246 153 246 153 284 169 c 0,44,45
 468 244 468 244 507 326 c 0,46,47
 522 356 522 356 522 399 c 0,48,49
 522 439 522 439 508 473 c 0,50,51
 492 510 492 510 448 545 c 0,52,53
 403 580 403 580 349 598 c 0,54,55
 304 615 304 615 231 615 c 0,56,57
 197 615 197 615 167 609 c 0,58,59
 50 584 50 584 50 498 c 0,17,18
EndSplineSet
Validated: 41
EndChar

StartChar: R
Encoding: 82 82 41
Width: 635
GlyphClass: 2
Flags: W
LayerCount: 2
Fore
SplineSet
302 458 m 0,0,1
 343 443 343 443 343 423 c 0,2,3
 343 411 343 411 296 373 c 0,4,5
 249 336 249 336 234 336 c 0,6,7
 233 336 233 336 232 337 c 0,8,9
 227 342 227 342 221 375 c 128,-1,10
 215 408 215 408 215 428 c 1,11,-1
 216 432 l 1,12,-1
 216 436 l 2,13,14
 216 465 216 465 262 465 c 0,15,16
 281 465 281 465 302 458 c 0,0,1
50 511 m 0,17,18
 50 483 50 483 61 436 c 0,19,20
 69 396 69 396 69 296 c 0,21,22
 69 73 69 73 98 17 c 0,23,24
 119 -26 119 -26 170 -26 c 0,25,26
 206 -26 206 -26 219 -5 c 0,27,28
 233 18 233 18 236 75 c 0,29,30
 237 126 237 126 244 133 c 0,31,32
 246 135 246 135 250 135 c 0,33,34
 260 135 260 135 322 100 c 0,35,36
 357 80 357 80 426 47 c 0,37,38
 489 18 489 18 497 18 c 2,39,-1
 503 18 l 2,40,41
 520 18 520 18 541 27 c 0,42,43
 566 38 566 38 576 61 c 0,44,45
 585 82 585 82 585 97 c 0,46,47
 585 122 585 122 563 144 c 0,48,49
 534 171 534 171 483 202 c 0,50,51
 424 239 424 239 418 245 c 0,52,53
 415 248 415 248 415 250 c 0,54,55
 415 256 415 256 437 275 c 0,56,57
 511 343 511 343 511 423 c 2,58,-1
 511 436 l 2,59,60
 511 473 511 473 481 521 c 0,61,62
 456 562 456 562 418 581 c 0,63,64
 338 622 338 622 237 622 c 0,65,66
 196 622 196 622 169 616 c 0,67,68
 92 601 92 601 73 574 c 0,69,70
 50 544 50 544 50 511 c 0,17,18
EndSplineSet
Validated: 9
EndChar

StartChar: S
Encoding: 83 83 42
Width: 546
GlyphClass: 2
Flags: W
LayerCount: 2
Fore
SplineSet
231 602 m 0,0,1
 177 581 177 581 151 567 c 0,2,3
 126 553 126 553 101 531 c 0,4,5
 50 486 50 486 50 420 c 0,6,7
 50 373 50 373 79 339 c 0,8,9
 92 323 92 323 184 269 c 0,10,11
 316 191 316 191 316 165 c 0,12,13
 316 158 316 158 307 154 c 0,14,15
 301 150 301 150 244 144 c 0,16,17
 198 139 198 139 156 139 c 2,18,-1
 146 139 l 2,19,20
 121 139 121 139 94 128 c 0,21,22
 68 117 68 117 59 102 c 0,23,24
 51 89 51 89 51 72 c 0,25,26
 51 28 51 28 84 5 c 0,27,28
 112 -16 112 -16 263 -16 c 0,29,30
 336 -16 336 -16 363 -9 c 0,31,32
 392 -3 392 -3 427 22 c 0,33,34
 482 60 482 60 492 119 c 0,35,36
 496 139 496 139 496 152 c 0,37,38
 496 164 496 164 491 186 c 0,39,40
 463 307 463 307 280 403 c 0,41,42
 243 422 243 422 243 431 c 0,43,44
 243 439 243 439 283 454 c 0,45,46
 326 470 326 470 353 474 c 0,47,48
 430 486 430 486 430 544 c 2,49,-1
 430 555 l 2,50,51
 430 588 430 588 405 606 c 0,52,53
 381 625 381 625 337 625 c 0,54,55
 336 625 336 625 332 625.5 c 128,-1,56
 328 626 328 626 326 626 c 2,57,-1
 317 626 l 2,58,59
 292 626 292 626 231 602 c 0,0,1
EndSplineSet
Validated: 9
EndChar

StartChar: T
Encoding: 84 84 43
Width: 630
GlyphClass: 2
Flags: W
LayerCount: 2
Fore
SplineSet
460 627 m 0,0,1
 355 619 355 619 208 593 c 0,2,3
 55 564 55 564 40 549 c 0,4,5
 15 528 15 528 15 487 c 0,6,7
 15 466 15 466 25 450 c 0,8,9
 48 417 48 417 93 417 c 0,10,11
 123 417 123 417 161 424 c 0,12,13
 204 429 204 429 209 429 c 2,14,-1
 214 429 l 1,15,16
 235 423 235 423 235 366 c 0,17,18
 235 348 235 348 233 328 c 0,19,20
 226 155 226 155 226 102 c 0,21,22
 226 47 226 47 230 36 c 0,23,24
 240 0 240 0 283 0 c 0,25,26
 303 0 303 0 324 10 c 0,27,28
 354 23 354 23 364 56 c 0,29,30
 374 87 374 87 383 200 c 0,31,32
 389 270 389 270 389 362 c 0,33,34
 389 450 389 450 395 455 c 0,35,36
 408 468 408 468 524 477 c 0,37,38
 571 481 571 481 585 494 c 0,39,40
 615 520 615 520 615 552 c 0,41,42
 615 555 615 555 614 558 c 2,43,-1
 614 563 l 1,44,45
 609 599 609 599 588 613 c 0,46,47
 566 628 566 628 510 628 c 0,48,49
 498 628 498 628 481.5 627.5 c 128,-1,50
 465 627 465 627 460 627 c 0,0,1
EndSplineSet
Validated: 9
EndChar

StartChar: U
Encoding: 85 85 44
Width: 625
GlyphClass: 2
Flags: W
LayerCount: 2
Fore
SplineSet
461 539 m 0,0,1
 432 525 432 525 417 503 c 0,2,3
 414 497 414 497 411 475.5 c 128,-1,4
 408 454 408 454 399.5 415 c 128,-1,5
 391 376 391 376 373 334 c 0,6,7
 318 214 318 214 257 161 c 0,8,9
 238 146 238 146 228 150 c 0,10,11
 207 160 207 160 207 230 c 2,12,-1
 207 253 l 2,13,14
 210 328 210 328 210 341 c 0,15,16
 210 463 210 463 197 491 c 0,17,18
 183 520 183 520 168 529 c 0,19,20
 151 540 151 540 123 540 c 0,21,22
 102 540 102 540 95 537 c 0,23,24
 87 534 87 534 75 522 c 0,25,26
 62 510 62 510 59 499 c 0,27,28
 57 492 57 492 57 448 c 0,29,30
 57 346 57 346 52 266 c 0,31,32
 50 246 50 246 50 225 c 0,33,34
 50 99 50 99 116 33 c 0,35,36
 165 -16 165 -16 236 -16 c 0,37,38
 275 -16 275 -16 298 -5 c 0,39,40
 324 5 324 5 362 37 c 0,41,42
 391 60 391 60 399 60 c 128,-1,43
 407 60 407 60 415 46 c 0,44,45
 438 9 438 9 481 9 c 0,46,47
 518 9 518 9 536 38 c 0,48,49
 555 74 555 74 566 226 c 2,50,-1
 570 296 l 2,51,52
 573 350 573 350 574 354 c 0,53,54
 574 360 574 360 575 366 c 2,55,-1
 575 376 l 2,56,57
 575 445 575 445 566.5 476 c 128,-1,58
 558 507 558 507 537 525 c 0,59,60
 514 547 514 547 493 547 c 0,61,62
 480 547 480 547 461 539 c 0,0,1
EndSplineSet
Validated: 9
EndChar

StartChar: V
Encoding: 86 86 45
Width: 546
GlyphClass: 2
Flags: W
LayerCount: 2
Fore
SplineSet
48 570 m 0,0,1
 15 548 15 548 15 510 c 0,2,3
 15 483 15 483 62 306 c 0,4,5
 110 124 110 124 130 74 c 0,6,7
 143 39 143 39 158 21 c 0,8,9
 172 7 172 7 196 0 c 0,10,11
 208 -3 208 -3 222 -3 c 0,12,13
 290 -3 290 -3 321 68 c 0,14,15
 333 96 333 96 386 190 c 0,16,17
 520 434 520 434 527 459 c 0,18,19
 531 475 531 475 531 484 c 0,20,21
 531 512 531 512 515 534 c 0,22,23
 500 554 500 554 477 554 c 0,24,25
 424 554 424 554 395 519 c 0,26,27
 391 514 391 514 358 459 c 0,28,29
 349 444 349 444 338 425.5 c 128,-1,30
 327 407 327 407 313.5 384 c 128,-1,31
 300 361 300 361 292 347 c 0,32,33
 257 286 257 286 257 285 c 0,34,35
 246 271 246 271 241 271 c 0,36,37
 230 271 230 271 200 389 c 0,38,39
 169 505 169 505 155 534 c 0,40,41
 141 564 141 564 107 575 c 0,42,43
 86 581 86 581 78 581 c 0,44,45
 67 581 67 581 48 570 c 0,0,1
EndSplineSet
Validated: 9
EndChar

StartChar: W
Encoding: 87 87 46
Width: 817
GlyphClass: 2
Flags: W
LayerCount: 2
Fore
SplineSet
634 544 m 0,0,1
 604 524 604 524 604 472 c 0,2,3
 604 378 604 378 588 311 c 0,4,5
 571 241 571 241 558 228 c 0,6,7
 554 224 554 224 550 224 c 0,8,9
 538 224 538 224 500 255 c 0,10,11
 467 282 467 282 425 300 c 0,12,13
 382 320 382 320 353 321 c 2,14,-1
 338 321 l 2,15,16
 292 321 292 321 259 291 c 0,17,18
 234 269 234 269 233 269 c 0,19,20
 227 269 227 269 227 315 c 0,21,22
 227 334 227 334 230 362 c 0,23,24
 230 391 230 391 230.5 410.5 c 128,-1,25
 231 430 231 430 231.5 437.5 c 128,-1,26
 232 445 232 445 232 447 c 0,27,28
 232 521 232 521 189 539 c 0,29,30
 176 545 176 545 156 545 c 0,31,32
 112 545 112 545 93 517 c 0,33,34
 82 500 82 500 68 321 c 1,35,36
 50 186 50 186 50 132 c 0,37,38
 50 91 50 91 55 69 c 0,39,40
 59 51 59 51 75 32 c 0,41,42
 98 6 98 6 148 6 c 0,43,44
 170 6 170 6 195 16 c 0,45,46
 209 22 209 22 283 91 c 2,47,-1
 351 155 l 1,48,-1
 373 142 l 2,49,50
 409 120 409 120 464 73 c 0,51,52
 536 14 536 14 550 9 c 0,53,54
 567 2 567 2 596 2 c 0,55,56
 628 2 628 2 641 10 c 0,57,58
 675 27 675 27 691 63 c 0,59,60
 704 91 704 91 736 239 c 0,61,62
 749 304 749 304 758 375.5 c 128,-1,63
 767 447 767 447 767 468 c 0,64,65
 767 510 767 510 733 537 c 0,66,67
 714 551 714 551 672 551 c 0,68,69
 647 551 647 551 634 544 c 0,0,1
EndSplineSet
Validated: 9
EndChar

StartChar: Y
Encoding: 89 89 47
Width: 678
GlyphClass: 2
Flags: W
LayerCount: 2
Fore
SplineSet
50 580 m 0,0,1
 50 536 50 536 102 480 c 0,2,3
 122 460 122 460 187 381 c 0,4,5
 255 298 255 298 266 282 c 0,6,7
 276 270 276 270 278 250 c 0,8,9
 280 236 280 236 282 150 c 2,10,-1
 284 34 l 1,11,-1
 302 16 l 2,12,13
 319 -3 319 -3 339 -10 c 0,14,15
 347 -12 347 -12 358 -12 c 0,16,17
 403 -12 403 -12 427 27 c 0,18,19
 439 49 439 49 450 234 c 0,20,21
 453 295 453 295 463 322 c 0,22,23
 475 348 475 348 527 410 c 0,24,25
 586 485 586 485 609 518 c 0,26,27
 628 547 628 547 628 570 c 0,28,29
 628 579 628 579 622 600 c 0,30,31
 615 625 615 625 603 635 c 128,-1,32
 591 645 591 645 562 648 c 0,33,34
 558 648 558 648 555 649 c 2,35,-1
 550 649 l 2,36,37
 526 649 526 649 506 630 c 0,38,39
 484 609 484 609 428 539 c 0,40,41
 361 454 361 454 347 451 c 2,42,-1
 346 451 l 2,43,44
 335 451 335 451 296 498 c 0,45,46
 229 582 229 582 188 617 c 0,47,48
 151 650 151 650 121 650 c 0,49,50
 90 650 90 650 71 629 c 0,51,52
 50 608 50 608 50 580 c 0,0,1
EndSplineSet
Validated: 9
EndChar

StartChar: Z
Encoding: 90 90 48
Width: 618
GlyphClass: 2
Flags: W
LayerCount: 2
Fore
SplineSet
143 627 m 0,0,1
 118 618 118 618 104 599 c 0,2,3
 90 579 90 579 90 555 c 0,4,5
 90 516 90 516 123 493 c 0,6,7
 140 482 140 482 197 475 c 0,8,9
 254 469 254 469 282 462 c 0,10,11
 301 456 301 456 303 453 c 0,12,13
 308 450 308 450 303 444 c 0,14,15
 300 436 300 436 220 368 c 0,16,17
 154 311 154 311 128 281 c 0,18,19
 98 245 98 245 76 200 c 0,20,21
 50 145 50 145 50 106 c 0,22,23
 50 50 50 50 105 20 c 0,24,25
 121 11 121 11 140 10 c 0,26,27
 179 7 179 7 232 7 c 2,28,-1
 272 7 l 2,29,30
 448 7 448 7 512 25 c 0,31,32
 539 32 539 32 553 43 c 0,33,34
 562 50 562 50 565 57 c 128,-1,35
 568 64 568 64 568 86 c 0,36,37
 568 136 568 136 533 165 c 0,38,39
 523 172 523 172 513 174 c 0,40,41
 499 176 499 176 463 176 c 2,42,-1
 339 176 l 2,43,44
 269 176 269 176 269 182 c 0,45,46
 269 192 269 192 304 222 c 0,47,48
 496 393 496 393 517 434 c 0,49,50
 530 459 530 459 530 491 c 0,51,52
 530 538 530 538 502 563 c 0,53,54
 475 590 475 590 352 611 c 0,55,56
 230 631 230 631 177 631 c 0,57,58
 157 631 157 631 143 627 c 0,0,1
EndSplineSet
Validated: 9
EndChar

StartChar: a
Encoding: 97 97 49
Width: 637
GlyphClass: 2
Flags: W
LayerCount: 2
Fore
SplineSet
375 325 m 0,0,1
 389 282 389 282 389 265 c 0,2,3
 389 250 389 250 375 243 c 0,4,5
 354 235 354 235 328 235 c 0,6,7
 298 235 298 235 292 243 c 0,8,9
 291 244 291 244 291 248 c 0,10,11
 291 268 291 268 318 319 c 128,-1,12
 345 370 345 370 357 370 c 0,13,14
 362 370 362 370 375 325 c 0,0,1
25 48 m 0,15,16
 25 29 25 29 35 10 c 0,17,18
 46 -10 46 -10 61 -19 c 0,19,20
 75 -27 75 -27 101 -27 c 0,21,22
 124 -27 124 -27 137 -19 c 0,23,24
 151 -8 151 -8 171 20 c 0,25,26
 191 51 191 51 200 57 c 0,27,28
 207 64 207 64 295 73 c 0,29,30
 379 83 379 83 423 83 c 2,31,-1
 431 83 l 2,32,33
 448 82 448 82 454 77 c 0,34,35
 457 75 457 75 472 51 c 0,36,37
 487 25 487 25 507 10 c 0,38,39
 524 0 524 0 545 0 c 0,40,41
 584 0 584 0 603 32 c 0,42,43
 612 46 612 46 612 66 c 0,44,45
 612 97 612 97 569 228 c 0,46,47
 526 356 526 356 510 415 c 0,48,49
 484 510 484 510 449 557 c 0,50,51
 415 601 415 601 364 607 c 0,52,53
 362 607 362 607 357 607.5 c 128,-1,54
 352 608 352 608 348 608 c 0,55,56
 334 608 334 608 322 599 c 0,57,58
 277 571 277 571 227 479 c 0,59,60
 180 395 180 395 109 243 c 0,61,62
 30 78 30 78 26 57 c 1,63,-1
 26 53 l 2,64,65
 25 51 25 51 25 48 c 0,15,16
EndSplineSet
Validated: 9
EndChar

StartChar: b
Encoding: 98 98 50
Width: 610
GlyphClass: 2
Flags: W
LayerCount: 2
Fore
SplineSet
331 221 m 0,0,1
 379 212 379 212 379 202 c 0,2,3
 379 191 379 191 318 176 c 0,4,5
 308 174 308 174 294 170 c 2,6,-1
 273 164 l 2,7,8
 270 164 270 164 266 163 c 256,9,10
 262 162 262 162 262 162 c 1,11,-1
 259 162 l 2,12,13
 248 162 248 162 241 172 c 0,14,15
 232 182 232 182 232 193 c 0,16,17
 232 206 232 206 241 218 c 0,18,19
 247 230 247 230 271 230 c 0,20,21
 294 230 294 230 331 221 c 0,0,1
15 580 m 0,22,23
 15 554 15 554 41 522 c 0,24,25
 57 505 57 505 63 481 c 0,26,27
 69 451 69 451 70 390 c 0,28,29
 78 198 78 198 95 140 c 0,30,31
 105 104 105 104 105 68 c 0,32,33
 105 34 105 34 111 21 c 0,34,35
 115 7 115 7 133 -3 c 0,36,37
 149 -13 149 -13 177 -13 c 0,38,39
 211 -13 211 -13 294 4 c 0,40,41
 400 25 400 25 454 48 c 0,42,43
 506 70 506 70 542 109 c 0,44,45
 585 155 585 155 585 203 c 0,46,47
 585 232 585 232 569 266 c 0,48,49
 541 319 541 319 460 350 c 0,50,51
 411 369 411 369 411 382 c 0,52,53
 411 384 411 384 413 390 c 0,54,55
 424 409 424 409 434 419 c 0,56,57
 480 473 480 473 480 536 c 0,58,59
 480 549 480 549 476 567 c 0,60,61
 464 615 464 615 399 644 c 0,62,63
 334 672 334 672 238 672 c 2,64,-1
 232 672 l 1,65,-1
 207 672 l 2,66,67
 198 671 198 671 184 671 c 2,68,-1
 174 671 l 1,69,-1
 111 660 l 2,70,71
 70 654 70 654 49 644 c 0,72,73
 32 633 32 633 22 612 c 0,74,75
 15 595 15 595 15 580 c 0,22,23
221 472 m 0,76,77
 221 520 221 520 256 520 c 0,78,79
 266 520 266 520 282 514 c 0,80,81
 296 509 296 509 296 502 c 0,82,83
 296 497 296 497 265 466 c 0,84,85
 240 441 240 441 231 441 c 0,86,87
 221 441 221 441 221 472 c 0,76,77
EndSplineSet
Validated: 9
EndChar

StartChar: c
Encoding: 99 99 51
Width: 585
GlyphClass: 2
Flags: W
LayerCount: 2
Fore
SplineSet
282 576 m 0,0,1
 252 566 252 566 224 549 c 0,2,3
 202 536 202 536 169 505 c 0,4,5
 136 473 136 473 119 449 c 0,6,7
 87 403 87 403 70 341 c 0,8,9
 50 275 50 275 50 222 c 0,10,11
 50 216 50 216 51 212 c 2,12,-1
 51 203 l 1,13,14
 63 51 63 51 185 11 c 0,15,16
 216 0 216 0 246 0 c 0,17,18
 272 0 272 0 282 1 c 0,19,20
 396 6 396 6 465 43 c 0,21,22
 535 79 535 79 535 130 c 0,23,24
 535 148 535 148 529 161 c 0,25,26
 515 196 515 196 464 196 c 0,27,28
 432 196 432 196 376 179 c 0,29,30
 319 161 319 161 278 161 c 0,31,32
 207 161 207 161 207 224 c 0,33,34
 207 240 207 240 214 273 c 0,35,36
 225 315 225 315 239 337 c 0,37,38
 251 359 251 359 283 389 c 0,39,40
 328 430 328 430 406 437 c 0,41,42
 435 438 435 438 452 450 c 0,43,44
 465 460 465 460 470 485 c 0,45,46
 471 488 471 488 471 498 c 0,47,48
 471 542 471 542 452 562 c 0,49,50
 428 589 428 589 360 589 c 0,51,52
 318 589 318 589 282 576 c 0,0,1
EndSplineSet
Validated: 9
EndChar

StartChar: d
Encoding: 100 100 52
Width: 607
GlyphClass: 2
Flags: W
LayerCount: 2
Fore
SplineSet
287 455 m 0,0,1
 396 413 396 413 396 333 c 0,2,3
 396 307 396 307 386 287 c 0,4,5
 370 250 370 250 325 217 c 0,6,7
 281 185 281 185 244 183 c 2,8,-1
 225 182 l 1,9,-1
 224 213 l 2,10,11
 224 228 224 228 217 315 c 0,12,13
 215 369 215 369 215 373 c 0,14,15
 215 459 215 459 228 466 c 0,16,17
 232 469 232 469 239 469 c 0,18,19
 248 469 248 469 287 455 c 0,0,1
50 53 m 0,20,21
 50 30 50 30 75 8 c 0,22,23
 105 -16 105 -16 134 -16 c 128,-1,24
 163 -16 163 -16 226 2 c 0,25,26
 378 45 378 45 457 116 c 0,27,28
 537 187 537 187 555 297 c 0,29,30
 557 305 557 305 557 321 c 0,31,32
 557 362 557 362 542 413 c 0,33,34
 526 466 526 466 507 494 c 0,35,36
 482 532 482 532 414 569 c 0,37,38
 346 607 346 607 272 626 c 0,39,40
 243 634 243 634 196 634 c 0,41,42
 89 634 89 634 68 586 c 0,43,44
 62 573 62 573 62 531 c 0,45,46
 62 493 62 493 65 319 c 0,47,48
 69 220 69 220 69 169 c 0,49,50
 69 126 69 126 59 95 c 0,51,52
 50 68 50 68 50 53 c 0,20,21
EndSplineSet
Validated: 9
EndChar

StartChar: e
Encoding: 101 101 53
Width: 483
GlyphClass: 2
Flags: W
LayerCount: 2
Fore
SplineSet
245 630 m 0,0,1
 119 622 119 622 89 606 c 0,2,3
 60 591 60 591 51 548 c 0,4,5
 50 546 50 546 50 539 c 0,6,7
 50 524 50 524 56 503 c 0,8,9
 64 474 64 474 68 299 c 0,10,11
 69 183 69 183 73 144 c 0,12,13
 76 111 76 111 85 81 c 0,14,15
 97 34 97 34 117 17 c 128,-1,16
 137 0 137 0 185 0 c 0,17,18
 207 0 207 0 287 8 c 0,19,20
 348 16 348 16 368 23 c 0,21,22
 387 30 387 30 401 49 c 0,23,24
 412 68 412 68 412 95 c 0,25,26
 412 118 412 118 404 132 c 0,27,28
 393 152 393 152 374 158 c 128,-1,29
 355 164 355 164 303 164 c 0,30,31
 237 164 237 164 231 173 c 0,32,33
 222 181 222 181 222 193 c 0,34,35
 222 208 222 208 234 220 c 0,36,37
 244 232 244 232 289 238 c 0,38,39
 352 246 352 246 378 261 c 0,40,41
 407 276 407 276 421 305 c 0,42,43
 429 324 429 324 429 338 c 0,44,45
 429 384 429 384 378 397 c 0,46,47
 362 401 362 401 354 401 c 128,-1,48
 346 401 346 401 310 395 c 0,49,50
 268 386 268 386 254 386 c 0,51,52
 227 386 227 386 227 414 c 0,53,54
 227 428 227 428 232 445 c 0,55,56
 238 463 238 463 254 469 c 0,57,58
 272 476 272 476 326 480 c 0,59,60
 381 486 381 486 401 500 c 0,61,62
 433 521 433 521 433 564 c 0,63,64
 433 605 433 605 389 625 c 0,65,66
 371 634 371 634 343 634 c 0,67,68
 336 634 336 634 323.5 633.5 c 128,-1,69
 311 633 311 633 287.5 632 c 128,-1,70
 264 631 264 631 245 630 c 0,0,1
EndSplineSet
Validated: 9
EndChar

StartChar: f
Encoding: 102 102 54
Width: 524
GlyphClass: 2
Flags: W
LayerCount: 2
Fore
SplineSet
132 36 m 0,0,1
 141 18 141 18 163 8 c 0,2,3
 181 0 181 0 197 0 c 0,4,5
 227 0 227 0 252 30 c 0,6,7
 262 42 262 42 270 77 c 0,8,9
 278 115 278 115 278 147 c 0,10,11
 278 169 278 169 289 179 c 0,12,13
 299 187 299 187 326 192 c 0,14,15
 402 201 402 201 430 220 c 128,-1,16
 458 239 458 239 458 270 c 0,17,18
 458 289 458 289 444 314 c 0,19,20
 429 337 429 337 415 345 c 0,21,22
 400 354 400 354 368 354 c 0,23,24
 367 354 367 354 363.5 353.5 c 128,-1,25
 360 353 360 353 357 353 c 0,26,27
 355 353 355 353 351 352.5 c 128,-1,28
 347 352 347 352 345 352 c 0,29,30
 341 352 341 352 330.5 351.5 c 128,-1,31
 320 351 320 351 313 351 c 0,32,33
 289 351 289 351 283 362 c 0,34,35
 278 374 278 374 278 413 c 0,36,37
 278 462 278 462 289 470 c 0,38,39
 299 478 299 478 366 489 c 0,40,41
 427 496 427 496 443 506 c 0,42,43
 474 521 474 521 474 568 c 0,44,45
 474 612 474 612 444 632 c 0,46,47
 429 643 429 643 374 643 c 0,48,49
 338 643 338 643 304 637 c 0,50,51
 269 630 269 630 225 630 c 128,-1,52
 181 630 181 630 130 613 c 0,53,54
 83 598 83 598 75 590 c 0,55,56
 64 579 64 579 54 574 c 0,57,58
 25 556 25 556 25 514 c 0,59,60
 25 488 25 488 40 473 c 0,61,62
 52 461 52 461 74 455 c 0,63,64
 102 446 102 446 108 428 c 0,65,66
 114 408 114 408 114 329 c 0,67,68
 114 268 114 268 119 207 c 128,-1,69
 124 146 124 146 124 94 c 0,70,71
 124 55 124 55 132 36 c 0,0,1
EndSplineSet
Validated: 9
EndChar

StartChar: g
Encoding: 103 103 55
Width: 715
GlyphClass: 2
Flags: W
LayerCount: 2
Fore
SplineSet
307 647 m 0,0,1
 260 637 260 637 204 588 c 0,2,3
 148 540 148 540 117 483 c 0,4,5
 50 361 50 361 50 243 c 0,6,7
 50 227 50 227 53 191 c 0,8,9
 56 137 56 137 68 109 c 0,10,11
 80 78 80 78 108 49 c 0,12,13
 174 -20 174 -20 280 -20 c 0,14,15
 385 -20 385 -20 475 49 c 2,16,-1
 514 79 l 1,17,-1
 536 55 l 2,18,19
 563 25 563 25 593 25 c 128,-1,20
 623 25 623 25 645 50 c 2,21,-1
 663 68 l 1,22,-1
 665 153 l 1,23,-1
 665 178 l 2,24,25
 665 252 665 252 651 285 c 0,26,27
 638 316 638 316 597 336 c 0,28,29
 572 349 572 349 536 349 c 2,30,-1
 510 349 l 2,31,32
 454 349 454 349 402 342 c 0,33,34
 358 338 358 338 338 324 c 0,35,36
 320 310 320 310 311 282 c 0,37,38
 306 257 306 257 306 253 c 0,39,40
 306 220 306 220 350 185 c 0,41,42
 364 173 364 173 358 166 c 0,43,44
 338 143 338 143 283 143 c 2,45,-1
 274 143 l 2,46,47
 241 146 241 146 230 157 c 0,48,49
 217 167 217 167 211 200 c 0,50,51
 207 216 207 216 207 232 c 0,52,53
 207 252 207 252 213 277 c 0,54,55
 251 473 251 473 390 512 c 0,56,57
 443 529 443 529 443 580 c 0,58,59
 443 613 443 613 416 637 c 0,60,61
 400 651 400 651 350 651 c 0,62,63
 324 651 324 651 307 647 c 0,0,1
EndSplineSet
Validated: 9
EndChar

StartChar: h
Encoding: 104 104 56
Width: 603
GlyphClass: 2
Flags: W
LayerCount: 2
Fore
SplineSet
425 606 m 0,0,1
 401 567 401 567 401 474 c 0,2,3
 401 358 401 358 384 326 c 0,4,5
 378 314 378 314 293 297 c 0,6,7
 260 291 260 291 252 291 c 0,8,9
 242 291 242 291 239 294 c 0,10,11
 231 300 231 300 229 434 c 0,12,13
 227 528 227 528 226 550 c 0,14,15
 224 575 224 575 216 590 c 0,16,17
 194 629 194 629 159 629 c 0,18,19
 121 629 121 629 93 586 c 0,20,21
 83 574 83 574 81 553 c 0,22,23
 79 542 79 542 76 449 c 0,24,25
 71 334 71 334 66 297 c 0,26,27
 60 254 60 254 42 218 c 0,28,29
 25 181 25 181 25 165 c 0,30,31
 25 144 25 144 47 121 c 0,32,33
 65 103 65 103 72 84 c 0,34,35
 77 64 77 64 77 24 c 0,36,37
 77 -54 77 -54 116 -74 c 0,38,39
 129 -81 129 -81 147 -81 c 0,40,41
 191 -81 191 -81 211 -46 c 0,42,43
 230 -8 230 -8 230 69 c 0,44,45
 230 103 230 103 240 113 c 0,46,47
 248 121 248 121 304 136 c 0,48,49
 362 150 362 150 382 150 c 0,50,51
 388 150 388 150 390 148 c 0,52,53
 396 143 396 143 401 104 c 0,54,55
 402 77 402 77 407 68 c 0,56,57
 412 58 412 58 423 47 c 0,58,59
 443 30 443 30 463 30 c 0,60,61
 509 30 509 30 530 59 c 0,62,63
 547 85 547 85 551 378 c 0,64,65
 553 430 553 430 553 477 c 0,66,67
 553 548 553 548 547 573 c 256,68,69
 541 598 541 598 522 614 c 0,70,71
 505 631 505 631 478 631 c 0,72,73
 443 631 443 631 425 606 c 0,0,1
EndSplineSet
Validated: 9
EndChar

StartChar: i
Encoding: 105 105 57
Width: 311
GlyphClass: 2
Flags: W
LayerCount: 2
Fore
SplineSet
127 587 m 0,0,1
 75 571 75 571 75 493 c 2,2,-1
 75 487 l 1,3,4
 82 62 82 62 93 37 c 0,5,6
 113 -7 113 -7 158 -10 c 2,7,-1
 169 -10 l 2,8,9
 206 -10 206 -10 225 23 c 0,10,11
 233 35 233 35 234 63 c 0,12,13
 236 101 236 101 236 206 c 0,14,15
 236 406 236 406 227 484 c 0,16,17
 218 563 218 563 191 579 c 0,18,19
 174 590 174 590 148 590 c 0,20,21
 133 590 133 590 127 587 c 0,0,1
EndSplineSet
Validated: 9
EndChar

StartChar: j
Encoding: 106 106 58
Width: 575
GlyphClass: 2
Flags: W
LayerCount: 2
Fore
SplineSet
359 594 m 0,0,1
 353 582 353 582 353 551 c 128,-1,2
 353 520 353 520 354 509 c 0,3,4
 360 446 360 446 361 437 c 0,5,6
 366 402 366 402 366 371 c 0,7,8
 366 336 366 336 359 272 c 0,9,10
 351 216 351 216 341 192 c 0,11,12
 333 169 333 169 309 160 c 0,13,14
 302 157 302 157 291 157 c 0,15,16
 259 157 259 157 214 230 c 0,17,18
 192 268 192 268 169 287 c 0,19,20
 145 309 145 309 121 309 c 0,21,22
 98 309 98 309 80 293 c 0,23,24
 50 268 50 268 50 230 c 0,25,26
 50 196 50 196 76 142 c 0,27,28
 101 93 101 93 137 55 c 0,29,30
 175 16 175 16 210 2 c 0,31,32
 248 -10 248 -10 297 -10 c 0,33,34
 348 -10 348 -10 377 2 c 0,35,36
 415 19 415 19 452 65 c 0,37,38
 490 111 490 111 506 159 c 0,39,40
 525 216 525 216 525 354 c 0,41,42
 525 448 525 448 513 513 c 0,43,44
 489 626 489 626 430 634 c 1,45,-1
 428 634 l 2,46,47
 427 635 427 635 426 635 c 2,48,-1
 425 636 l 2,49,50
 424 636 424 636 423 636 c 0,51,52
 409 636 409 636 388 621 c 0,53,54
 369 609 369 609 359 594 c 0,0,1
EndSplineSet
Validated: 9
EndChar

StartChar: k
Encoding: 107 107 59
Width: 571
GlyphClass: 2
Flags: W
LayerCount: 2
Fore
SplineSet
98 630 m 0,0,1
 63 613 63 613 55 566 c 0,2,3
 50 540 50 540 50 367 c 0,4,5
 50 192 50 192 60 122 c 0,6,7
 69 51 69 51 97 21 c 0,8,9
 116 0 116 0 147 0 c 128,-1,10
 178 0 178 0 197 19 c 0,11,12
 208 30 208 30 209 37 c 0,13,14
 214 52 214 52 214 75 c 0,15,16
 214 119 214 119 220 119 c 0,17,18
 228 119 228 119 295 72 c 0,19,20
 361 26 361 26 387 14 c 0,21,22
 415 0 415 0 448 0 c 2,23,-1
 463 0 l 2,24,25
 484 0 484 0 499 16 c 0,26,27
 521 41 521 41 521 72 c 128,-1,28
 521 103 521 103 509 115 c 0,29,30
 504 120 504 120 428 180 c 0,31,32
 351 240 351 240 349 245 c 0,33,34
 347 248 347 248 347 251 c 0,35,36
 347 253 347 253 348 255 c 0,37,38
 354 267 354 267 450 366 c 0,39,40
 486 404 486 404 501 430 c 0,41,42
 517 460 517 460 517 485 c 0,43,44
 517 486 517 486 517.5 488 c 128,-1,45
 518 490 518 490 518 492 c 2,46,-1
 518 498 l 2,47,48
 518 530 518 530 501 547 c 0,49,50
 484 565 484 565 457 565 c 1,51,-1
 455 564 l 2,52,53
 453 564 453 564 452 564 c 2,54,-1
 446 564 l 2,55,56
 433 564 433 564 411 545 c 0,57,58
 394 532 394 532 325 463 c 0,59,60
 236 374 236 374 226 374 c 0,61,62
 223 374 223 374 220 378 c 0,63,64
 213 390 213 390 213 426 c 0,65,66
 213 536 213 536 195 597 c 0,67,68
 186 623 186 623 174 631 c 0,69,70
 162 640 162 640 139 640 c 0,71,72
 118 640 118 640 98 630 c 0,0,1
EndSplineSet
Validated: 9
EndChar

StartChar: l
Encoding: 108 108 60
Width: 574
GlyphClass: 2
Flags: W
LayerCount: 2
Fore
SplineSet
151 628 m 0,0,1
 142 626 142 626 125 605 c 0,2,3
 109 582 109 582 101 563 c 0,4,5
 98 553 98 553 90.5 523 c 128,-1,6
 83 493 83 493 81 484 c 0,7,8
 71 424 71 424 71 378 c 0,9,10
 71 350 71 350 74 278 c 0,11,12
 78 218 78 218 78 177 c 0,13,14
 78 123 78 123 60 84 c 0,15,16
 50 61 50 61 50 50 c 0,17,18
 50 40 50 40 53 32 c 0,19,20
 66 -20 66 -20 143 -20 c 0,21,22
 146 -20 146 -20 151.5 -19.5 c 128,-1,23
 157 -19 157 -19 166.5 -18.5 c 128,-1,24
 176 -18 176 -18 184 -18 c 0,25,26
 234 -11 234 -11 319 -3 c 0,27,28
 460 9 460 9 499 28 c 0,29,30
 525 40 525 40 536 52 c 0,31,32
 546 64 546 64 548 87 c 2,33,-1
 548 92 l 2,34,35
 549 94 549 94 549 97 c 0,36,37
 549 132 549 132 505 153 c 0,38,39
 485 163 485 163 431 163 c 0,40,41
 396 163 396 163 333 157 c 0,42,43
 285 153 285 153 276 153 c 0,44,45
 254 153 254 153 243 163 c 0,46,47
 234 174 234 174 234 229 c 0,48,49
 234 309 234 309 235 346 c 0,50,51
 237 487 237 487 241 527 c 0,52,53
 242 533 242 533 242 550 c 0,54,55
 242 568 242 568 234 587 c 0,56,57
 210 631 210 631 167 631 c 0,58,59
 156 631 156 631 151 628 c 0,0,1
EndSplineSet
Validated: 9
EndChar

StartChar: m
Encoding: 109 109 61
Width: 824
GlyphClass: 2
Flags: W
LayerCount: 2
Fore
SplineSet
558 542 m 0,0,1
 539 537 539 537 520 515 c 0,2,3
 499 491 499 491 463 440 c 0,4,5
 417 371 417 371 408 366 c 0,6,7
 406 365 406 365 404 365 c 0,8,9
 392 365 392 365 327 445 c 0,10,11
 277 506 277 506 251 523 c 0,12,13
 226 541 226 541 190 541 c 0,14,15
 126 541 126 541 107 478 c 0,16,17
 101 462 101 462 92 400 c 128,-1,18
 83 338 83 338 80 307 c 0,19,20
 77 270 77 270 65 209 c 0,21,22
 50 132 50 132 50 92 c 0,23,24
 50 62 50 62 60 40 c 0,25,26
 71 21 71 21 90 11 c 0,27,28
 108 -1 108 -1 125 -1 c 256,29,30
 142 -1 142 -1 158 8 c 0,31,32
 176 17 176 17 182 28 c 0,33,34
 183 31 183 31 195 78 c 0,35,36
 204 122 204 122 204 131 c 0,37,38
 204 142 204 142 213 189 c 0,39,40
 223 235 223 235 223 244 c 0,41,42
 227 267 227 267 236 279 c 2,43,-1
 245 290 l 1,44,-1
 258 274 l 2,45,46
 326 192 326 192 362 183 c 0,47,48
 373 179 373 179 388 179 c 0,49,50
 460 179 460 179 531 262 c 0,51,52
 565 305 565 305 572 305 c 0,53,54
 576 305 576 305 582 282 c 0,55,56
 587 261 587 261 607 150 c 0,57,58
 623 55 623 55 639 25 c 0,59,60
 663 -20 663 -20 704 -20 c 0,61,62
 734 -20 734 -20 758 7 c 2,63,-1
 774 26 l 1,64,-1
 772 85 l 2,65,66
 763 264 763 264 723 410 c 0,67,68
 699 490 699 490 678 516 c 0,69,70
 656 541 656 541 607 544 c 2,71,-1
 594 544 l 2,72,73
 589 545 589 545 583 545 c 0,74,75
 568 545 568 545 558 542 c 0,0,1
EndSplineSet
Validated: 9
EndChar

StartChar: n
Encoding: 110 110 62
Width: 706
GlyphClass: 2
Flags: W
LayerCount: 2
Fore
SplineSet
558 593 m 0,0,1
 524 582 524 582 512 554 c 0,2,3
 501 527 501 527 493 437 c 0,4,5
 493 433 493 433 492 424.5 c 128,-1,6
 491 416 491 416 490.5 407 c 128,-1,7
 490 398 490 398 489 389 c 2,8,-1
 486 342 l 2,9,10
 485 330 485 330 485 319 c 0,11,12
 485 294 485 294 477 289 c 0,13,14
 475 287 475 287 474 287 c 0,15,16
 471 287 471 287 458.5 301.5 c 128,-1,17
 446 316 446 316 419.5 346 c 128,-1,18
 393 376 393 376 367 402 c 0,19,20
 299 470 299 470 278 488 c 0,21,22
 255 506 255 506 237 511 c 0,23,24
 213 518 213 518 189 529 c 0,25,26
 168 539 168 539 151 539 c 0,27,28
 120 539 120 539 97 510 c 128,-1,29
 74 481 74 481 68 430 c 0,30,31
 50 278 50 278 50 78 c 2,32,-1
 50 -18 l 1,33,-1
 69 -38 l 2,34,35
 82 -51 82 -51 91 -54 c 0,36,37
 102 -58 102 -58 124 -59 c 0,38,39
 134 -61 134 -61 143 -61 c 0,40,41
 159 -61 159 -61 171 -49 c 0,42,43
 195 -25 195 -25 206 111 c 0,44,45
 219 301 219 301 230 301 c 0,46,47
 240 301 240 301 357 183 c 0,48,49
 392 148 392 148 425 110.5 c 128,-1,50
 458 73 458 73 473.5 54.5 c 128,-1,51
 489 36 489 36 492 35 c 0,52,53
 507 30 507 30 523 30 c 0,54,55
 555 30 555 30 584 50 c 0,56,57
 612 67 612 67 621 99 c 0,58,59
 632 138 632 138 640 260 c 0,60,61
 642 280 642 280 645 323 c 2,62,-1
 650 398 l 2,63,64
 656 499 656 499 656 517 c 0,65,66
 656 544 656 544 645 560 c 0,67,68
 618 596 618 596 582 596 c 0,69,70
 572 596 572 596 558 593 c 0,0,1
EndSplineSet
Validated: 9
EndChar

StartChar: o
Encoding: 111 111 63
Width: 647
GlyphClass: 2
Flags: W
LayerCount: 2
Fore
SplineSet
397 447 m 0,0,1
 434 420 434 420 434 368 c 0,2,3
 434 352 434 352 426 309 c 0,4,5
 416 265 416 265 410 250 c 0,6,7
 395 214 395 214 362 187 c 128,-1,8
 329 160 329 160 294 153 c 1,9,-1
 289 153 l 2,10,11
 287 152 287 152 283 152 c 0,12,13
 254 152 254 152 230 173 c 0,14,15
 207 194 207 194 207 222 c 0,16,17
 207 256 207 256 236 343 c 0,18,19
 266 430 266 430 282 444 c 0,20,21
 298 460 298 460 327 460 c 2,22,-1
 344 460 l 2,23,24
 381 459 381 459 397 447 c 0,0,1
49 217 m 0,25,26
 49 136 49 136 78 92 c 0,27,28
 91 71 91 71 117 47 c 0,29,30
 143 22 143 22 163 13 c 0,31,32
 183 3 183 3 221 -8 c 0,33,34
 263 -18 263 -18 280 -18 c 0,35,36
 321 -18 321 -18 399 18 c 0,37,38
 476 54 476 54 502 86 c 0,39,40
 537 130 537 130 565 207 c 0,41,42
 597 295 597 295 597 374 c 0,43,44
 597 471 597 471 551 536 c 0,45,46
 528 569 528 569 490 590 c 0,47,48
 455 609 455 609 368 635 c 0,49,50
 332 646 332 646 311 646 c 0,51,52
 283 646 283 646 247 627 c 0,53,54
 214 609 214 609 181 576 c 0,55,56
 148 545 148 545 129 513 c 0,57,58
 92 451 92 451 62 331 c 0,59,60
 49 263 49 263 49 217 c 0,25,26
EndSplineSet
Validated: 9
EndChar

StartChar: p
Encoding: 112 112 64
Width: 547
GlyphClass: 2
Flags: W
LayerCount: 2
Fore
SplineSet
331 429 m 0,0,1
 350 417 350 417 350 404 c 0,2,3
 350 392 350 392 330 375 c 0,4,5
 313 361 313 361 290 350 c 0,6,7
 265 340 265 340 256 340 c 2,8,-1
 252 340 l 1,9,10
 245 344 245 344 245 390 c 0,11,12
 245 438 245 438 255 448 c 0,13,14
 266 459 266 459 287 450 c 0,15,16
 309 443 309 443 331 429 c 0,0,1
50 498 m 0,17,18
 50 477 50 477 68 454 c 0,19,20
 87 429 87 429 87 426 c 0,21,22
 87 419 87 419 86 408 c 2,23,-1
 82 361 l 2,24,25
 82 359 82 359 80.5 336.5 c 128,-1,26
 79 314 79 314 79 303 c 0,27,28
 71 183 71 183 71 137 c 0,29,30
 71 46 71 46 79 27 c 0,31,32
 93 -11 93 -11 144 -17 c 0,33,34
 149 -17 149 -17 152 -18 c 2,35,-1
 157 -18 l 2,36,37
 171 -18 171 -18 193 7 c 0,38,39
 218 33 218 33 221 59 c 0,40,41
 228 134 228 134 235 142 c 0,42,43
 246 153 246 153 284 169 c 0,44,45
 468 244 468 244 507 326 c 0,46,47
 522 356 522 356 522 399 c 0,48,49
 522 439 522 439 508 473 c 0,50,51
 492 510 492 510 448 545 c 0,52,53
 403 580 403 580 349 598 c 0,54,55
 304 615 304 615 231 615 c 0,56,57
 197 615 197 615 167 609 c 0,58,59
 50 584 50 584 50 498 c 0,17,18
EndSplineSet
Validated: 41
EndChar

StartChar: r
Encoding: 114 114 65
Width: 635
GlyphClass: 2
Flags: W
LayerCount: 2
Fore
SplineSet
302 458 m 0,0,1
 343 443 343 443 343 423 c 0,2,3
 343 411 343 411 296 373 c 0,4,5
 249 336 249 336 234 336 c 0,6,7
 233 336 233 336 232 337 c 0,8,9
 227 342 227 342 221 375 c 128,-1,10
 215 408 215 408 215 428 c 1,11,-1
 216 432 l 1,12,-1
 216 436 l 2,13,14
 216 465 216 465 262 465 c 0,15,16
 281 465 281 465 302 458 c 0,0,1
50 511 m 0,17,18
 50 483 50 483 61 436 c 0,19,20
 69 396 69 396 69 296 c 0,21,22
 69 73 69 73 98 17 c 0,23,24
 119 -26 119 -26 170 -26 c 0,25,26
 206 -26 206 -26 219 -5 c 0,27,28
 233 18 233 18 236 75 c 0,29,30
 237 126 237 126 244 133 c 0,31,32
 246 135 246 135 250 135 c 0,33,34
 260 135 260 135 322 100 c 0,35,36
 357 80 357 80 426 47 c 0,37,38
 489 18 489 18 497 18 c 2,39,-1
 503 18 l 2,40,41
 520 18 520 18 541 27 c 0,42,43
 566 38 566 38 576 61 c 0,44,45
 585 82 585 82 585 97 c 0,46,47
 585 122 585 122 563 144 c 0,48,49
 534 171 534 171 483 202 c 0,50,51
 424 239 424 239 418 245 c 0,52,53
 415 248 415 248 415 250 c 0,54,55
 415 256 415 256 437 275 c 0,56,57
 511 343 511 343 511 423 c 2,58,-1
 511 436 l 2,59,60
 511 473 511 473 481 521 c 0,61,62
 456 562 456 562 418 581 c 0,63,64
 338 622 338 622 237 622 c 0,65,66
 196 622 196 622 169 616 c 0,67,68
 92 601 92 601 73 574 c 0,69,70
 50 544 50 544 50 511 c 0,17,18
EndSplineSet
Validated: 9
EndChar

StartChar: s
Encoding: 115 115 66
Width: 546
GlyphClass: 2
Flags: W
LayerCount: 2
Fore
SplineSet
231 602 m 0,0,1
 177 581 177 581 151 567 c 0,2,3
 126 553 126 553 101 531 c 0,4,5
 50 486 50 486 50 420 c 0,6,7
 50 373 50 373 79 339 c 0,8,9
 92 323 92 323 184 269 c 0,10,11
 316 191 316 191 316 165 c 0,12,13
 316 158 316 158 307 154 c 0,14,15
 301 150 301 150 244 144 c 0,16,17
 198 139 198 139 156 139 c 2,18,-1
 146 139 l 2,19,20
 121 139 121 139 94 128 c 0,21,22
 68 117 68 117 59 102 c 0,23,24
 51 89 51 89 51 72 c 0,25,26
 51 28 51 28 84 5 c 0,27,28
 112 -16 112 -16 263 -16 c 0,29,30
 336 -16 336 -16 363 -9 c 0,31,32
 392 -3 392 -3 427 22 c 0,33,34
 482 60 482 60 492 119 c 0,35,36
 496 139 496 139 496 152 c 0,37,38
 496 164 496 164 491 186 c 0,39,40
 463 307 463 307 280 403 c 0,41,42
 243 422 243 422 243 431 c 0,43,44
 243 439 243 439 283 454 c 0,45,46
 326 470 326 470 353 474 c 0,47,48
 430 486 430 486 430 544 c 2,49,-1
 430 555 l 2,50,51
 430 588 430 588 405 606 c 0,52,53
 381 625 381 625 337 625 c 0,54,55
 336 625 336 625 332 625.5 c 128,-1,56
 328 626 328 626 326 626 c 2,57,-1
 317 626 l 2,58,59
 292 626 292 626 231 602 c 0,0,1
EndSplineSet
Validated: 9
EndChar

StartChar: t
Encoding: 116 116 67
Width: 630
GlyphClass: 2
Flags: W
LayerCount: 2
Fore
SplineSet
460 627 m 0,0,1
 355 619 355 619 208 593 c 0,2,3
 55 564 55 564 40 549 c 0,4,5
 15 528 15 528 15 487 c 0,6,7
 15 466 15 466 25 450 c 0,8,9
 48 417 48 417 93 417 c 0,10,11
 123 417 123 417 161 424 c 0,12,13
 204 429 204 429 209 429 c 2,14,-1
 214 429 l 1,15,16
 235 423 235 423 235 366 c 0,17,18
 235 348 235 348 233 328 c 0,19,20
 226 155 226 155 226 102 c 0,21,22
 226 47 226 47 230 36 c 0,23,24
 240 0 240 0 283 0 c 0,25,26
 303 0 303 0 324 10 c 0,27,28
 354 23 354 23 364 56 c 0,29,30
 374 87 374 87 383 200 c 0,31,32
 389 270 389 270 389 362 c 0,33,34
 389 450 389 450 395 455 c 0,35,36
 408 468 408 468 524 477 c 0,37,38
 571 481 571 481 585 494 c 0,39,40
 615 520 615 520 615 552 c 0,41,42
 615 555 615 555 614 558 c 2,43,-1
 614 563 l 1,44,45
 609 599 609 599 588 613 c 0,46,47
 566 628 566 628 510 628 c 0,48,49
 498 628 498 628 481.5 627.5 c 128,-1,50
 465 627 465 627 460 627 c 0,0,1
EndSplineSet
Validated: 9
EndChar

StartChar: u
Encoding: 117 117 68
Width: 625
GlyphClass: 2
Flags: W
LayerCount: 2
Fore
SplineSet
461 539 m 0,0,1
 432 525 432 525 417 503 c 0,2,3
 414 497 414 497 411 475.5 c 128,-1,4
 408 454 408 454 399.5 415 c 128,-1,5
 391 376 391 376 373 334 c 0,6,7
 318 214 318 214 257 161 c 0,8,9
 238 146 238 146 228 150 c 0,10,11
 207 160 207 160 207 230 c 2,12,-1
 207 253 l 2,13,14
 210 328 210 328 210 341 c 0,15,16
 210 463 210 463 197 491 c 0,17,18
 183 520 183 520 168 529 c 0,19,20
 151 540 151 540 123 540 c 0,21,22
 102 540 102 540 95 537 c 0,23,24
 87 534 87 534 75 522 c 0,25,26
 62 510 62 510 59 499 c 0,27,28
 57 492 57 492 57 448 c 0,29,30
 57 346 57 346 52 266 c 0,31,32
 50 246 50 246 50 225 c 0,33,34
 50 99 50 99 116 33 c 0,35,36
 165 -16 165 -16 236 -16 c 0,37,38
 275 -16 275 -16 298 -5 c 0,39,40
 324 5 324 5 362 37 c 0,41,42
 391 60 391 60 399 60 c 128,-1,43
 407 60 407 60 415 46 c 0,44,45
 438 9 438 9 481 9 c 0,46,47
 518 9 518 9 536 38 c 0,48,49
 555 74 555 74 566 226 c 2,50,-1
 570 296 l 2,51,52
 573 350 573 350 574 354 c 0,53,54
 574 360 574 360 575 366 c 2,55,-1
 575 376 l 2,56,57
 575 445 575 445 566.5 476 c 128,-1,58
 558 507 558 507 537 525 c 0,59,60
 514 547 514 547 493 547 c 0,61,62
 480 547 480 547 461 539 c 0,0,1
EndSplineSet
Validated: 9
EndChar

StartChar: v
Encoding: 118 118 69
Width: 546
GlyphClass: 2
Flags: W
LayerCount: 2
Fore
SplineSet
48 570 m 0,0,1
 15 548 15 548 15 510 c 0,2,3
 15 483 15 483 62 306 c 0,4,5
 110 124 110 124 130 74 c 0,6,7
 143 39 143 39 158 21 c 0,8,9
 172 7 172 7 196 0 c 0,10,11
 208 -3 208 -3 222 -3 c 0,12,13
 290 -3 290 -3 321 68 c 0,14,15
 333 96 333 96 386 190 c 0,16,17
 520 434 520 434 527 459 c 0,18,19
 531 475 531 475 531 484 c 0,20,21
 531 512 531 512 515 534 c 0,22,23
 500 554 500 554 477 554 c 0,24,25
 424 554 424 554 395 519 c 0,26,27
 391 514 391 514 358 459 c 0,28,29
 349 444 349 444 338 425.5 c 128,-1,30
 327 407 327 407 313.5 384 c 128,-1,31
 300 361 300 361 292 347 c 0,32,33
 257 286 257 286 257 285 c 0,34,35
 246 271 246 271 241 271 c 0,36,37
 230 271 230 271 200 389 c 0,38,39
 169 505 169 505 155 534 c 0,40,41
 141 564 141 564 107 575 c 0,42,43
 86 581 86 581 78 581 c 0,44,45
 67 581 67 581 48 570 c 0,0,1
EndSplineSet
Validated: 9
EndChar

StartChar: w
Encoding: 119 119 70
Width: 817
GlyphClass: 2
Flags: W
LayerCount: 2
Fore
SplineSet
634 544 m 0,0,1
 604 524 604 524 604 472 c 0,2,3
 604 378 604 378 588 311 c 0,4,5
 571 241 571 241 558 228 c 0,6,7
 554 224 554 224 550 224 c 0,8,9
 538 224 538 224 500 255 c 0,10,11
 467 282 467 282 425 300 c 0,12,13
 382 320 382 320 353 321 c 2,14,-1
 338 321 l 2,15,16
 292 321 292 321 259 291 c 0,17,18
 234 269 234 269 233 269 c 0,19,20
 227 269 227 269 227 315 c 0,21,22
 227 334 227 334 230 362 c 0,23,24
 230 391 230 391 230.5 410.5 c 128,-1,25
 231 430 231 430 231.5 437.5 c 128,-1,26
 232 445 232 445 232 447 c 0,27,28
 232 521 232 521 189 539 c 0,29,30
 176 545 176 545 156 545 c 0,31,32
 112 545 112 545 93 517 c 0,33,34
 82 500 82 500 68 321 c 1,35,36
 50 186 50 186 50 132 c 0,37,38
 50 91 50 91 55 69 c 0,39,40
 59 51 59 51 75 32 c 0,41,42
 98 6 98 6 148 6 c 0,43,44
 170 6 170 6 195 16 c 0,45,46
 209 22 209 22 283 91 c 2,47,-1
 351 155 l 1,48,-1
 373 142 l 2,49,50
 409 120 409 120 464 73 c 0,51,52
 536 14 536 14 550 9 c 0,53,54
 567 2 567 2 596 2 c 0,55,56
 628 2 628 2 641 10 c 0,57,58
 675 27 675 27 691 63 c 0,59,60
 704 91 704 91 736 239 c 0,61,62
 749 304 749 304 758 375.5 c 128,-1,63
 767 447 767 447 767 468 c 0,64,65
 767 510 767 510 733 537 c 0,66,67
 714 551 714 551 672 551 c 0,68,69
 647 551 647 551 634 544 c 0,0,1
EndSplineSet
Validated: 9
EndChar

StartChar: y
Encoding: 121 121 71
Width: 678
GlyphClass: 2
Flags: W
LayerCount: 2
Fore
SplineSet
50 580 m 0,0,1
 50 536 50 536 102 480 c 0,2,3
 122 460 122 460 187 381 c 0,4,5
 255 298 255 298 266 282 c 0,6,7
 276 270 276 270 278 250 c 0,8,9
 280 236 280 236 282 150 c 2,10,-1
 284 34 l 1,11,-1
 302 16 l 2,12,13
 319 -3 319 -3 339 -10 c 0,14,15
 347 -12 347 -12 358 -12 c 0,16,17
 403 -12 403 -12 427 27 c 0,18,19
 439 49 439 49 450 234 c 0,20,21
 453 295 453 295 463 322 c 0,22,23
 475 348 475 348 527 410 c 0,24,25
 586 485 586 485 609 518 c 0,26,27
 628 547 628 547 628 570 c 0,28,29
 628 579 628 579 622 600 c 0,30,31
 615 625 615 625 603 635 c 128,-1,32
 591 645 591 645 562 648 c 0,33,34
 558 648 558 648 555 649 c 2,35,-1
 550 649 l 2,36,37
 526 649 526 649 506 630 c 0,38,39
 484 609 484 609 428 539 c 0,40,41
 361 454 361 454 347 451 c 2,42,-1
 346 451 l 2,43,44
 335 451 335 451 296 498 c 0,45,46
 229 582 229 582 188 617 c 0,47,48
 151 650 151 650 121 650 c 0,49,50
 90 650 90 650 71 629 c 0,51,52
 50 608 50 608 50 580 c 0,0,1
EndSplineSet
Validated: 9
EndChar

StartChar: z
Encoding: 122 122 72
Width: 618
GlyphClass: 2
Flags: W
LayerCount: 2
Fore
SplineSet
143 627 m 0,0,1
 118 618 118 618 104 599 c 0,2,3
 90 579 90 579 90 555 c 0,4,5
 90 516 90 516 123 493 c 0,6,7
 140 482 140 482 197 475 c 0,8,9
 254 469 254 469 282 462 c 0,10,11
 301 456 301 456 303 453 c 0,12,13
 308 450 308 450 303 444 c 0,14,15
 300 436 300 436 220 368 c 0,16,17
 154 311 154 311 128 281 c 0,18,19
 98 245 98 245 76 200 c 0,20,21
 50 145 50 145 50 106 c 0,22,23
 50 50 50 50 105 20 c 0,24,25
 121 11 121 11 140 10 c 0,26,27
 179 7 179 7 232 7 c 2,28,-1
 272 7 l 2,29,30
 448 7 448 7 512 25 c 0,31,32
 539 32 539 32 553 43 c 0,33,34
 562 50 562 50 565 57 c 128,-1,35
 568 64 568 64 568 86 c 0,36,37
 568 136 568 136 533 165 c 0,38,39
 523 172 523 172 513 174 c 0,40,41
 499 176 499 176 463 176 c 2,42,-1
 339 176 l 2,43,44
 269 176 269 176 269 182 c 0,45,46
 269 192 269 192 304 222 c 0,47,48
 496 393 496 393 517 434 c 0,49,50
 530 459 530 459 530 491 c 0,51,52
 530 538 530 538 502 563 c 0,53,54
 475 590 475 590 352 611 c 0,55,56
 230 631 230 631 177 631 c 0,57,58
 157 631 157 631 143 627 c 0,0,1
EndSplineSet
Validated: 9
EndChar

StartChar: q
Encoding: 113 113 73
Width: 648
Flags: W
LayerCount: 2
Fore
SplineSet
488.991210938 10.09765625 m 4,0,1
 518.001953125 -14.994140625 518.001953125 -14.994140625 536.208984375 -18.5322265625 c 4,2,3
 576.096679688 -29.5615234375 576.096679688 -29.5615234375 608.454101562 -4.2548828125 c 4,4,5
 618.780273438 3.822265625 618.780273438 3.822265625 621.28515625 10.2265625 c 4,6,7
 624.477539062 17.1689453125 624.477539062 17.1689453125 625.65625 36.98046875 c 4,8,9
 626.556640625 67.6875 626.556640625 67.6875 616.141601562 79.54296875 c 4,10,11
 609.77734375 86.7880859375 609.77734375 86.7880859375 593.276367188 94.9951171875 c 4,12,13
 577.573242188 104.936523438 577.573242188 104.936523438 478.302734375 213.9765625 c 6,14,-1
 377.294921875 324.991210938 l 5,15,-1
 360.713867188 325.357421875 l 6,16,17
 342.865234375 325.842773438 342.865234375 325.842773438 331.850585938 317.2265625 c 4,18,19
 322.900390625 310.227539062 322.900390625 310.227539062 311.006835938 292.03515625 c 4,20,21
 295.122070312 265.166015625 295.122070312 265.166015625 301.325195312 242.239257812 c 4,22,23
 307.748046875 221.704101562 307.748046875 221.704101562 353.956054688 161.170898438 c 4,24,25
 378.866210938 126.205078125 378.866210938 126.205078125 419.947265625 79.439453125 c 4,26,27
 461.607421875 32.0166015625 461.607421875 32.0166015625 488.991210938 10.09765625 c 4,0,1
398 447 m 0,28,29
 435 420 435 420 435 368 c 0,30,31
 435 352 435 352 427 309 c 0,32,33
 417 265 417 265 411 250 c 0,34,35
 396 214 396 214 363 187 c 128,-1,36
 330 160 330 160 295 153 c 1,37,-1
 290 153 l 2,38,39
 288 152 288 152 284 152 c 0,40,41
 255 152 255 152 231 173 c 0,42,43
 208 194 208 194 208 222 c 0,44,45
 208 256 208 256 237 343 c 0,46,47
 267 430 267 430 283 444 c 0,48,49
 299 460 299 460 328 460 c 2,50,-1
 345 460 l 2,51,52
 382 459 382 459 398 447 c 0,28,29
50 217 m 0,53,54
 50 136 50 136 79 92 c 0,55,56
 92 71 92 71 118 47 c 0,57,58
 144 22 144 22 164 13 c 0,59,60
 184 3 184 3 222 -8 c 0,61,62
 264 -18 264 -18 281 -18 c 0,63,64
 322 -18 322 -18 400 18 c 0,65,66
 477 54 477 54 503 86 c 0,67,68
 538 130 538 130 566 207 c 0,69,70
 598 295 598 295 598 374 c 0,71,72
 598 471 598 471 552 536 c 0,73,74
 529 569 529 569 491 590 c 0,75,76
 456 609 456 609 369 635 c 0,77,78
 333 646 333 646 312 646 c 0,79,80
 284 646 284 646 248 627 c 0,81,82
 215 609 215 609 182 576 c 0,83,84
 149 545 149 545 130 513 c 0,85,86
 93 451 93 451 63 331 c 0,87,88
 50 263 50 263 50 217 c 0,53,54
EndSplineSet
Validated: 524325
EndChar

StartChar: x
Encoding: 120 120 74
Width: 647
Flags: W
LayerCount: 2
Fore
SplineSet
556.805664062 556.91015625 m 4,0,1
 498.3671875 585.96875 498.3671875 585.96875 432.194335938 521.454101562 c 6,2,-1
 427.103515625 516.491210938 l 5,3,4
 72.58203125 159.278320312 72.58203125 159.278320312 60.8623046875 129.653320312 c 4,5,6
 40.7890625 76.994140625 40.7890625 76.994140625 77.0673828125 37.9130859375 c 6,7,-1
 86.55859375 28.966796875 l 6,8,9
 118.48046875 -1.1259765625 118.48046875 -1.1259765625 162.870117188 10.71484375 c 4,10,11
 179.952148438 14.1337890625 179.952148438 14.1337890625 204.569335938 36.4794921875 c 4,12,13
 238.533203125 66.283203125 238.533203125 66.283203125 327.61328125 153.12890625 c 4,14,15
 497.288085938 318.549804688 497.288085938 318.549804688 555.698242188 390.385742188 c 4,16,17
 614.955078125 463.045898438 614.955078125 463.045898438 605.235351562 498.240234375 c 4,18,19
 599.899414062 521.165039062 599.899414062 521.165039062 577.467773438 542.311523438 c 4,20,21
 564.526367188 554.510742188 564.526367188 554.510742188 556.805664062 556.91015625 c 4,0,1
545.540039062 29.7978515625 m 4,22,23
 588.045898438 77.9892578125 588.045898438 77.9892578125 537.084960938 154.145507812 c 6,24,-1
 533.165039062 160.00390625 l 5,25,26
 248.364257812 570.575195312 248.364257812 570.575195312 220.827148438 588.09375 c 4,27,28
 171.7109375 618.52734375 171.7109375 618.52734375 123.920898438 593.270507812 c 6,29,-1
 112.717773438 586.380859375 l 6,30,31
 75.03515625 563.206054688 75.03515625 563.206054688 77.2451171875 519.084960938 c 4,32,33
 76.9375 502.358398438 76.9375 502.358398438 94.212890625 474.393554688 c 4,34,35
 117.00390625 436.0390625 117.00390625 436.0390625 185.604492188 333.520507812 c 4,36,37
 316.274414062 138.247070312 316.274414062 138.247070312 376.400390625 67.728515625 c 4,38,39
 437.180664062 -3.767578125 437.180664062 -3.767578125 475.1328125 -2.4775390625 c 4,40,41
 499.6328125 -2.5703125 499.6328125 -2.5703125 526.112304688 13.71484375 c 4,42,43
 541.389648438 23.1103515625 541.389648438 23.1103515625 545.540039062 29.7978515625 c 4,22,23
EndSplineSet
Validated: 524325
EndChar

StartChar: X
Encoding: 88 88 75
Width: 647
Flags: W
LayerCount: 2
Fore
SplineSet
556.805664062 556.91015625 m 4,0,1
 498.3671875 585.96875 498.3671875 585.96875 432.194335938 521.454101562 c 6,2,-1
 427.103515625 516.491210938 l 5,3,4
 72.58203125 159.278320312 72.58203125 159.278320312 60.8623046875 129.653320312 c 4,5,6
 40.7890625 76.994140625 40.7890625 76.994140625 77.0673828125 37.9130859375 c 6,7,-1
 86.55859375 28.966796875 l 6,8,9
 118.48046875 -1.1259765625 118.48046875 -1.1259765625 162.870117188 10.71484375 c 4,10,11
 179.952148438 14.1337890625 179.952148438 14.1337890625 204.569335938 36.4794921875 c 4,12,13
 238.533203125 66.283203125 238.533203125 66.283203125 327.61328125 153.12890625 c 4,14,15
 497.288085938 318.549804688 497.288085938 318.549804688 555.698242188 390.385742188 c 4,16,17
 614.955078125 463.045898438 614.955078125 463.045898438 605.235351562 498.240234375 c 4,18,19
 599.899414062 521.165039062 599.899414062 521.165039062 577.467773438 542.311523438 c 4,20,21
 564.526367188 554.510742188 564.526367188 554.510742188 556.805664062 556.91015625 c 4,0,1
545.540039062 29.7978515625 m 4,22,23
 588.045898438 77.9892578125 588.045898438 77.9892578125 537.084960938 154.145507812 c 6,24,-1
 533.165039062 160.00390625 l 5,25,26
 248.364257812 570.575195312 248.364257812 570.575195312 220.827148438 588.09375 c 4,27,28
 171.7109375 618.52734375 171.7109375 618.52734375 123.920898438 593.270507812 c 6,29,-1
 112.717773438 586.380859375 l 6,30,31
 75.03515625 563.206054688 75.03515625 563.206054688 77.2451171875 519.084960938 c 4,32,33
 76.9375 502.358398438 76.9375 502.358398438 94.212890625 474.393554688 c 4,34,35
 117.00390625 436.0390625 117.00390625 436.0390625 185.604492188 333.520507812 c 4,36,37
 316.274414062 138.247070312 316.274414062 138.247070312 376.400390625 67.728515625 c 4,38,39
 437.180664062 -3.767578125 437.180664062 -3.767578125 475.1328125 -2.4775390625 c 4,40,41
 499.6328125 -2.5703125 499.6328125 -2.5703125 526.112304688 13.71484375 c 4,42,43
 541.389648438 23.1103515625 541.389648438 23.1103515625 545.540039062 29.7978515625 c 4,22,23
EndSplineSet
Validated: 524325
EndChar

StartChar: Q
Encoding: 81 81 76
Width: 648
Flags: W
LayerCount: 2
Fore
SplineSet
488.991210938 10.09765625 m 4,0,1
 518.001953125 -14.994140625 518.001953125 -14.994140625 536.208984375 -18.5322265625 c 4,2,3
 576.096679688 -29.5615234375 576.096679688 -29.5615234375 608.454101562 -4.2548828125 c 4,4,5
 618.780273438 3.822265625 618.780273438 3.822265625 621.28515625 10.2265625 c 4,6,7
 624.477539062 17.1689453125 624.477539062 17.1689453125 625.65625 36.98046875 c 4,8,9
 626.556640625 67.6875 626.556640625 67.6875 616.141601562 79.54296875 c 4,10,11
 609.77734375 86.7880859375 609.77734375 86.7880859375 593.276367188 94.9951171875 c 4,12,13
 577.573242188 104.936523438 577.573242188 104.936523438 478.302734375 213.9765625 c 6,14,-1
 377.294921875 324.991210938 l 5,15,-1
 360.713867188 325.357421875 l 6,16,17
 342.865234375 325.842773438 342.865234375 325.842773438 331.850585938 317.2265625 c 4,18,19
 322.900390625 310.227539062 322.900390625 310.227539062 311.006835938 292.03515625 c 4,20,21
 295.122070312 265.166015625 295.122070312 265.166015625 301.325195312 242.239257812 c 4,22,23
 307.748046875 221.704101562 307.748046875 221.704101562 353.956054688 161.170898438 c 4,24,25
 378.866210938 126.205078125 378.866210938 126.205078125 419.947265625 79.439453125 c 4,26,27
 461.607421875 32.0166015625 461.607421875 32.0166015625 488.991210938 10.09765625 c 4,0,1
398 447 m 0,28,29
 435 420 435 420 435 368 c 0,30,31
 435 352 435 352 427 309 c 0,32,33
 417 265 417 265 411 250 c 0,34,35
 396 214 396 214 363 187 c 128,-1,36
 330 160 330 160 295 153 c 1,37,-1
 290 153 l 2,38,39
 288 152 288 152 284 152 c 0,40,41
 255 152 255 152 231 173 c 0,42,43
 208 194 208 194 208 222 c 0,44,45
 208 256 208 256 237 343 c 0,46,47
 267 430 267 430 283 444 c 0,48,49
 299 460 299 460 328 460 c 2,50,-1
 345 460 l 2,51,52
 382 459 382 459 398 447 c 0,28,29
50 217 m 0,53,54
 50 136 50 136 79 92 c 0,55,56
 92 71 92 71 118 47 c 0,57,58
 144 22 144 22 164 13 c 0,59,60
 184 3 184 3 222 -8 c 0,61,62
 264 -18 264 -18 281 -18 c 0,63,64
 322 -18 322 -18 400 18 c 0,65,66
 477 54 477 54 503 86 c 0,67,68
 538 130 538 130 566 207 c 0,69,70
 598 295 598 295 598 374 c 0,71,72
 598 471 598 471 552 536 c 0,73,74
 529 569 529 569 491 590 c 0,75,76
 456 609 456 609 369 635 c 0,77,78
 333 646 333 646 312 646 c 0,79,80
 284 646 284 646 248 627 c 0,81,82
 215 609 215 609 182 576 c 0,83,84
 149 545 149 545 130 513 c 0,85,86
 93 451 93 451 63 331 c 0,87,88
 50 263 50 263 50 217 c 0,53,54
EndSplineSet
Validated: 524325
EndChar

StartChar: J
Encoding: 74 74 77
Width: 575
Flags: W
LayerCount: 2
Fore
SplineSet
359 594 m 0,0,1
 353 582 353 582 353 551 c 128,-1,2
 353 520 353 520 354 509 c 0,3,4
 360 446 360 446 361 437 c 0,5,6
 366 402 366 402 366 371 c 0,7,8
 366 336 366 336 359 272 c 0,9,10
 351 216 351 216 341 192 c 0,11,12
 333 169 333 169 309 160 c 0,13,14
 302 157 302 157 291 157 c 0,15,16
 259 157 259 157 214 230 c 0,17,18
 192 268 192 268 169 287 c 0,19,20
 145 309 145 309 121 309 c 0,21,22
 98 309 98 309 80 293 c 0,23,24
 50 268 50 268 50 230 c 0,25,26
 50 196 50 196 76 142 c 0,27,28
 101 93 101 93 137 55 c 0,29,30
 175 16 175 16 210 2 c 0,31,32
 248 -10 248 -10 297 -10 c 0,33,34
 348 -10 348 -10 377 2 c 0,35,36
 415 19 415 19 452 65 c 0,37,38
 490 111 490 111 506 159 c 0,39,40
 525 216 525 216 525 354 c 0,41,42
 525 448 525 448 513 513 c 0,43,44
 489 626 489 626 430 634 c 1,45,-1
 428 634 l 2,46,47
 427 635 427 635 426 635 c 2,48,-1
 425 636 l 2,49,50
 424 636 424 636 423 636 c 0,51,52
 409 636 409 636 388 621 c 0,53,54
 369 609 369 609 359 594 c 0,0,1
EndSplineSet
Validated: 9
EndChar
